<svg xmlns="http://www.w3.org/2000/svg" xmlns:xlink="http://www.w3.org/1999/xlink" xmlns:sketch="http://www.bohemiancoding.com/sketch/ns" width="141px" height="36px" viewBox="0 0 141 36" version="1.1">
    <title>logo-supermarket</title>
    <description>Created with Sketch (http://www.bohemiancoding.com/sketch)</description>
    <defs/>
    <g id="Page-1" stroke="none" stroke-width="1" fill="none" fill-rule="evenodd" sketch:type="MSPage">
        <g id="Cookbooks" sketch:type="MSArtboardGroup" transform="translate(-54.000000, -32.000000)">
            <g id="logo-supermarket" sketch:type="MSLayerGroup">
                <path d="M93.8 45.6 L93.8 45.5 C93.8 39.2 98.4 34.1 104.9 34.1 C108.9 34.1 111.3 35.5 113.3 37.5 L110.3 41.1 C108.7 39.5 107 38.6 104.9 38.6 C101.3 38.6 98.7 41.7 98.7 45.5 L98.7 45.5 C98.7 49.3 101.2 52.5 104.9 52.5 C107.3 52.5 108.8 51.5 110.5 49.9 L113.5 53 C111.3 55.5 108.8 57 104.7 57 C98.5 57 93.8 52 93.8 45.6 " id="Fill-1" fill="#435363" sketch:type="MSShapeGroup"/>
                <path d="M117.2 34.5 L121.9 34.5 L121.9 43.2 L130.5 43.2 L130.5 34.5 L135.2 34.5 L135.2 56.6 L130.5 56.6 L130.5 47.7 L121.9 47.7 L121.9 56.6 L117.2 56.6 L117.2 34.5 " id="Fill-2" fill="#435363" sketch:type="MSShapeGroup"/>
                <path d="M140.9 34.5 L157 34.5 L157 38.8 L145.6 38.8 L145.6 43.3 L155.6 43.3 L155.6 47.6 L145.6 47.6 L145.6 52.3 L157.2 52.3 L157.2 56.6 L140.9 56.6 L140.9 34.5 " id="Fill-3" fill="#435363" sketch:type="MSShapeGroup"/>
                <path d="M161.9 34.5 L178.2 34.5 L178.2 38.9 L166.6 38.9 L166.6 43.6 L176.8 43.6 L176.8 48 L166.6 48 L166.6 56.6 L161.9 56.6 L161.9 34.5 " id="Fill-4" fill="#435363" sketch:type="MSShapeGroup"/>
                <path d="M72 57.8 C67.7 57.8 64.3 54.2 64.3 49.8 C64.3 45.4 67.7 41.9 72 41.9 C75.5 41.9 78.4 44.3 79.3 47.6 L82.3 47.6 C81.3 42.6 77.1 38.9 72 38.9 C66.1 38.9 61.4 43.8 61.4 49.8 C61.4 55.9 66.1 60.8 72 60.8 C77.1 60.8 81.3 57.1 82.3 52.1 L79.3 52.1 C78.4 55.4 75.5 57.8 72 57.8 " id="Fill-5" fill="#435363" sketch:type="MSShapeGroup"/>
                <path d="M66.8 55.2 C68.1 56.6 69.9 57.5 72 57.5 L72 54.3 C70.8 54.3 69.7 53.8 68.9 53 L66.8 55.2 " id="Fill-6" fill="#435363" sketch:type="MSShapeGroup"/>
                <path d="M64.6 49.8 C64.6 50.9 64.9 52 65.2 52.9 L68.1 51.6 C67.8 51.1 67.7 50.5 67.7 49.8 C67.7 47.4 69.6 45.4 72 45.4 L72 42.2 C67.9 42.2 64.6 45.6 64.6 49.8 " id="Fill-7" fill="#F38B00" sketch:type="MSShapeGroup"/>
                <path d="M74.6 42.7 L73.5 45.7 C74.4 46.1 75.2 46.8 75.7 47.6 L79 47.6 C78.3 45.4 76.7 43.6 74.6 42.7 " id="Fill-8" fill="#435363" sketch:type="MSShapeGroup"/>
                <path d="M73.5 54 L74.6 56.9 C76.7 56.1 78.3 54.3 79 52.1 L75.7 52.1 C75.2 52.9 74.4 53.6 73.5 54 " id="Fill-9" fill="#F38B00" sketch:type="MSShapeGroup"/>
                <path d="M58.4 54.1 C58.3 53.9 58.3 53.8 58.3 53.6 C58.3 53.6 58.3 53.6 58.3 53.6 C58.2 53.4 58.2 53.3 58.1 53.1 C58.1 53.1 58.1 53 58.1 53 C58.1 52.9 58.1 52.7 58 52.6 C58 52.5 58 52.5 58 52.4 C58 52.3 58 52.2 58 52.1 C57.9 52 57.9 51.9 57.9 51.8 C57.8 51.2 57.8 50.5 57.8 49.8 L54.9 49.8 C54.9 50.6 54.9 51.3 55 52 L55 52 C55 52 55 52 55 52 C55 52.2 55.1 52.4 55.1 52.6 C55.1 52.6 55.1 52.7 55.1 52.7 C55.1 52.9 55.2 53.1 55.2 53.2 C55.2 53.3 55.2 53.4 55.3 53.5 C55.3 53.6 55.3 53.7 55.3 53.8 C55.4 53.9 55.4 54 55.4 54.2 C55.4 54.2 55.5 54.3 55.5 54.4 C55.5 54.6 55.5 54.7 55.6 54.8 C55.6 54.9 55.6 54.9 55.6 55 L55.6 55 C55.8 55.7 56.1 56.3 56.3 57 L59 55.8 C58.8 55.2 58.6 54.7 58.4 54.1 " id="Fill-10" fill="#435363" sketch:type="MSShapeGroup"/>
                <path d="M72 64.6 C68.1 64.6 64.5 62.9 61.9 60.2 L59.9 62.4 C63 65.6 67.2 67.6 72 67.6 C80.7 67.6 87.8 60.8 88.9 52.1 L86 52.1 C84.9 59.1 79 64.6 72 64.6 " id="Fill-11" fill="#F38B00" sketch:type="MSShapeGroup"/>
                <path d="M72 35.1 C75.1 35.1 78.1 36.2 80.4 38 L82.2 35.6 C79.3 33.4 75.8 32.1 72 32.1 C64.7 32.1 58.5 36.8 56.1 43.4 L58.8 44.5 C60.8 39 66 35.1 72 35.1 " id="Fill-12" fill="#F38B00" sketch:type="MSShapeGroup"/>
                <path d="M86 47.6 L88.9 47.6 C88.6 45 87.7 42.6 86.4 40.4 L84 42 C85 43.7 85.7 45.6 86 47.6 " id="Fill-13" fill="#435363" sketch:type="MSShapeGroup"/>
                <path d="M82.7 47.6 L85.6 47.6 C84.8 42.5 81.5 38.3 77 36.5 L75.9 39.3 C79.4 40.6 81.9 43.8 82.7 47.6 " id="Fill-14" fill="#F38B00" sketch:type="MSShapeGroup"/>
                <path d="M72 38.5 L72 38.5 L72 35.5 C72 35.5 72 35.5 72 35.5 C66.1 35.5 61.1 39.3 59.1 44.6 L61.8 45.7 C63.4 41.5 67.3 38.5 72 38.5 " id="Fill-15" fill="#435363" sketch:type="MSShapeGroup"/>
                <path d="M61 49.8 L58.1 49.8 C58.1 55.9 61.7 61 66.8 63.2 L67.9 60.4 C63.9 58.7 61 54.6 61 49.8 " id="Fill-16" fill="#F38B00" sketch:type="MSShapeGroup"/>
                <path d="M72 61.2 L72 64.2 C78.9 64.2 84.6 58.9 85.6 52.1 L82.7 52.1 C81.7 57.3 77.3 61.2 72 61.2 " id="Fill-17" fill="#435363" sketch:type="MSShapeGroup"/>
                <path d="M99.8 63.6 C101.2 64 102 64.5 102 65.7 C102 67.1 101 67.9 99.5 67.9 C98.5 67.9 97.5 67.5 96.6 66.7 L97.4 65.8 C98 66.4 98.7 66.8 99.5 66.8 C100.3 66.8 100.8 66.4 100.8 65.9 C100.8 65.3 100.5 65.1 99.2 64.8 C97.7 64.4 96.9 63.9 96.9 62.6 C96.9 61.4 97.9 60.5 99.3 60.5 C100.3 60.5 101.1 60.8 101.8 61.4 L101.1 62.4 C100.5 61.9 99.9 61.6 99.2 61.6 C98.5 61.6 98.1 62 98.1 62.5 C98.1 63.1 98.4 63.3 99.8 63.6 " id="Fill-18" fill="#F18A21" sketch:type="MSShapeGroup"/>
                <path d="M111.3 64.7 C111.3 66.8 110.2 67.9 108.4 67.9 C106.6 67.9 105.4 66.8 105.4 64.7 L105.4 60.6 L106.7 60.6 L106.7 64.7 C106.7 66 107.3 66.7 108.4 66.7 C109.5 66.7 110.1 66.1 110.1 64.7 L110.1 60.6 L111.3 60.6 L111.3 64.7 " id="Fill-19" fill="#F18A21" sketch:type="MSShapeGroup"/>
                <path d="M117.7 65.5 L116.4 65.5 L116.4 67.8 L115.2 67.8 L115.2 60.6 L117.9 60.6 C119.5 60.6 120.5 61.6 120.5 63 C120.5 64.6 119.2 65.5 117.7 65.5 L117.7 65.5 ZM117.8 61.8 L116.4 61.8 L116.4 64.3 L117.8 64.3 C118.7 64.3 119.3 63.8 119.3 63.1 C119.3 62.2 118.7 61.8 117.8 61.8 L117.8 61.8 Z" id="Fill-20" fill="#F18A21" sketch:type="MSShapeGroup"/>
                <path d="M129 61.7 L125.1 61.7 L125.1 63.6 L128.6 63.6 L128.6 64.7 L125.1 64.7 L125.1 66.7 L129 66.7 L129 67.8 L123.9 67.8 L123.9 60.6 L129 60.6 L129 61.7 " id="Fill-21" fill="#F18A21" sketch:type="MSShapeGroup"/>
                <path d="M137.1 67.8 L135.4 65.3 L133.8 65.3 L133.8 67.8 L132.6 67.8 L132.6 60.6 L135.7 60.6 C137.3 60.6 138.3 61.5 138.3 62.9 C138.3 64.1 137.6 64.8 136.6 65.1 L138.5 67.8 L137.1 67.8 L137.1 67.8 ZM135.6 61.8 L133.8 61.8 L133.8 64.2 L135.6 64.2 C136.5 64.2 137 63.7 137 63 C137 62.2 136.5 61.8 135.6 61.8 L135.6 61.8 Z" id="Fill-22" fill="#F18A21" sketch:type="MSShapeGroup"/>
                <path d="M145.3 66 L145.3 66 L143.1 62.7 L143.1 67.8 L141.9 67.8 L141.9 60.6 L143.2 60.6 L145.3 64 L147.4 60.6 L148.7 60.6 L148.7 67.8 L147.5 67.8 L147.5 62.6 L145.3 66 " id="Fill-23" fill="#F18A21" sketch:type="MSShapeGroup"/>
                <path d="M159.2 67.8 L157.9 67.8 L157.2 66.1 L154 66.1 L153.3 67.8 L152 67.8 L155.1 60.6 L156.2 60.6 L159.2 67.8 L159.2 67.8 ZM155.6 62.1 L154.4 64.9 L156.8 64.9 L155.6 62.1 L155.6 62.1 Z" id="Fill-24" fill="#F18A21" sketch:type="MSShapeGroup"/>
                <path d="M167 67.8 L165.3 65.3 L163.8 65.3 L163.8 67.8 L162.5 67.8 L162.5 60.6 L165.6 60.6 C167.2 60.6 168.2 61.5 168.2 62.9 C168.2 64.1 167.5 64.8 166.5 65.1 L168.4 67.8 L167 67.8 L167 67.8 ZM165.5 61.8 L163.8 61.8 L163.8 64.2 L165.5 64.2 C166.4 64.2 166.9 63.7 166.9 63 C166.9 62.2 166.4 61.8 165.5 61.8 L165.5 61.8 Z" id="Fill-25" fill="#F18A21" sketch:type="MSShapeGroup"/>
                <path d="M177.9 67.8 L176.5 67.8 L174.1 64.6 L173 65.7 L173 67.8 L171.8 67.8 L171.8 60.6 L173 60.6 L173 64.2 L176.3 60.6 L177.8 60.6 L174.9 63.7 L177.9 67.8 " id="Fill-26" fill="#F18A21" sketch:type="MSShapeGroup"/>
                <path d="M186.2 61.7 L182.3 61.7 L182.3 63.6 L185.8 63.6 L185.8 64.7 L182.3 64.7 L182.3 66.7 L186.3 66.7 L186.3 67.8 L181.1 67.8 L181.1 60.6 L186.2 60.6 L186.2 61.7 " id="Fill-27" fill="#F18A21" sketch:type="MSShapeGroup"/>
                <path d="M192.8 67.8 L191.6 67.8 L191.6 61.8 L189.4 61.8 L189.4 60.6 L195 60.6 L195 61.8 L192.8 61.8 L192.8 67.8 " id="Fill-28" fill="#F18A21" sketch:type="MSShapeGroup"/>
            </g>
        </g>
    </g>
</svg>
