<?xml version="1.0" encoding="UTF-8" standalone="no"?>
<!-- Created with Inkscape (http://www.inkscape.org/) -->

<svg
   xmlns:dc="http://purl.org/dc/elements/1.1/"
   xmlns:cc="http://creativecommons.org/ns#"
   xmlns:rdf="http://www.w3.org/1999/02/22-rdf-syntax-ns#"
   xmlns:svg="http://www.w3.org/2000/svg"
   xmlns="http://www.w3.org/2000/svg"
   version="1.1"
   width="344"
   height="384"
   id="svg2995">
  <metadata
     id="metadata3001">
    <rdf:RDF>
      <cc:Work
         rdf:about="">
        <dc:format>image/svg+xml</dc:format>
        <dc:type
           rdf:resource="http://purl.org/dc/dcmitype/StillImage" />
        <dc:title></dc:title>
      </cc:Work>
    </rdf:RDF>
  </metadata>
  <defs
     id="defs2999">
    <filter
       x="0"
       y="0"
       width="1"
       height="1"
       color-interpolation-filters="sRGB"
       id="filter3023">
      <feColorMatrix
         values="0"
         type="saturate"
         id="feColorMatrix3025" />
    </filter>
  </defs>
  <g
     transform="translate(1.627119,1.6271229)"
     id="g3005"
     style="filter:url(#filter3023)">
    <path
       d="M 0,192 0,0 l 172,0 172,0 0,192 0,192 -172,0 -172,0 0,-192 z"
       id="path3021"
       style="fill:#fefefd" />
    <path
       d="M 94.775986,330.61859 C 52.577778,306.23678 17.365278,285.71812 16.525986,285.02157 15.179938,283.90445 15,273.7467 15,198.87756 15,131.95951 15.26265,114 16.241298,114 c 0.682714,0 35.902034,34.65 78.265155,77 42.363117,42.35 77.468137,77 78.011137,77 0.543,0 35.63509,-34.65 77.98241,-77 43.41396,-43.41671 77.75945,-77 78.74756,-77 1.65615,0 1.75244,4.66199 1.75244,84.84501 0,79.56967 -0.10881,84.93779 -1.75,86.33716 -3.08947,2.63425 -154.90022,89.8188 -156.35171,89.79241 -0.76906,-0.014 -35.9241,-19.97418 -78.122304,-44.35599 z M 163,193.4012 c -8.97311,-3.23948 -17.71936,-12.13175 -19.99704,-20.3309 -1.49188,-5.37047 -1.2039,-15.1243 0.60314,-20.42766 2.19636,-6.44596 10.0104,-14.77988 16.62379,-17.72978 7.36089,-3.28332 18.17933,-3.28332 25.54022,0 6.87645,3.06724 14.48353,11.32397 16.76703,18.19897 2.52718,7.6086 1.67631,19.14186 -1.85699,25.17098 -6.02689,10.28411 -14.85398,15.80901 -26.18015,16.38623 -4.74205,0.24167 -8.45154,-0.16729 -11.5,-1.26784 z M 79.606989,158.41821 c -0.773997,-2.017 -0.775155,-90.189563 -0.0012,-93.074446 0.424893,-1.583816 12.590569,-9.083402 45.826571,-28.25 C 150.3188,22.742194 171.54952,11 172.61171,11 c 1.06219,0 22.39659,11.8125 47.40978,26.25 L 265.5,63.5 l 0.25991,47.44009 c 0.17335,31.63968 -0.0841,47.78408 -0.77292,48.47292 -0.71044,0.71044 -14.99532,-12.92708 -45.76403,-43.69009 C 194.6208,91.125313 173.81672,71 172.99167,71 172.16661,71 151.47037,91.025 127,115.5 102.52963,139.975 81.992176,160 81.361202,160 c -0.630973,0 -1.420369,-0.7118 -1.754213,-1.58179 z"
       id="path3019"
       style="fill:#fad7a0" />
    <path
       d="m 94.603005,328.59197 c -42.293347,-24.44729 -77.273956,-45.04415 -77.734687,-45.7708 -1.05262,-1.66015 -1.116908,-163.88177 -0.0656,-165.5362 0.512878,-0.80711 26.609797,24.62431 77.732252,75.75 C 136.86306,235.36574 172.17232,270 173,270 c 0.82768,0 36.13694,-34.63426 78.46503,-76.96503 51.12246,-51.12569 77.21938,-76.55711 77.73225,-75.75 0.42465,0.66827 0.77899,37.91652 0.78741,82.7739 0.012,63.7618 -0.25745,81.90149 -1.23469,83.129 -1.60236,2.01273 -152.58496,89.06976 -155.25,89.51762 -1.23728,0.20793 -31.32532,-16.61513 -78.896995,-44.11352 z M 164.5,193.66163 c -6.7931,-2.25104 -10.06608,-4.38515 -14.79948,-9.64982 -5.91577,-6.57976 -8.03433,-12.86628 -7.52774,-22.33742 0.64156,-11.99471 7.51839,-21.93639 18.65155,-26.96415 6.45542,-2.91528 17.87183,-2.92635 24.29807,-0.0236 11.34765,5.12582 18.87538,16.44533 18.87681,28.38518 4.3e-4,3.61452 -0.72195,8.693 -1.60531,11.2855 -2.22439,6.52824 -10.02304,14.80662 -16.62343,17.64604 -6.35606,2.7343 -15.80107,3.47063 -21.27047,1.65823 z M 80,111.52305 80,64.046106 82.25,62.584066 C 89.824011,57.662508 171.51955,11 172.56208,11 173.74781,11 261.00079,60.966909 263.75,63.220318 265.57174,64.713519 265.5758,159 263.75412,159 c -0.68523,0 -21.38523,-20.13562 -46,-44.74583 L 173,69.508334 128.24588,114.25417 C 103.42254,139.07291 82.714248,159 81.745879,159 80.109223,159 80,156.02983 80,111.52305 z"
       id="path3017"
       style="fill:#9a9c9d" />
    <path
       d="m 94.603005,328.59197 c -42.293347,-24.44729 -77.273956,-45.04415 -77.734687,-45.7708 -1.05262,-1.66015 -1.116908,-163.88177 -0.0656,-165.5362 0.512878,-0.80711 26.609797,24.62431 77.732252,75.75 C 136.86306,235.36574 172.17232,270 173,270 c 0.82768,0 36.13694,-34.63426 78.46503,-76.96503 51.12246,-51.12569 77.21938,-76.55711 77.73225,-75.75 0.42465,0.66827 0.77899,37.91652 0.78741,82.7739 0.012,63.7618 -0.25745,81.90149 -1.23469,83.129 -1.60236,2.01273 -152.58496,89.06976 -155.25,89.51762 -1.23728,0.20793 -31.32532,-16.61513 -78.896995,-44.11352 z M 162.27458,191.34591 c -2.32398,-0.8229 -6.42537,-3.47413 -9.1142,-5.89162 -15.28861,-13.74578 -12.06428,-38.64154 6.2496,-48.25448 4.35683,-2.2869 6.3144,-2.67175 13.59002,-2.67175 7.27562,0 9.23319,0.38485 13.59002,2.67175 14.21203,7.45988 20.03045,24.836 13.07605,39.05028 -3.3267,6.79954 -10.03388,13.00576 -16.39968,15.17481 -5.71272,1.94652 -15.37421,1.91017 -20.99181,-0.079 z M 81.701006,157.36767 C 81.315453,156.98212 81,136.04805 81,110.84752 l 0,-45.819143 3.75,-2.439711 c 5.061202,-3.292764 84.50336,-49.088176 86.45002,-49.835179 0.94673,-0.363293 19.05466,9.511017 46.92085,25.586075 L 263.5,64.517249 263.75999,110.75862 C 263.90298,136.19138 263.67983,157 263.26411,157 c -0.41573,0 -20.89035,-20.13075 -45.49916,-44.735 L 173.02166,67.529993 127.71184,112.79934 c -24.92041,24.89813 -45.625281,44.95389 -46.010834,44.56833 z"
       id="path3015"
       style="fill:#f9b616" />
    <path
       d="m 173,322.34342 0,-50.87056 77.71564,-77.69654 c 51.41494,-51.40231 77.9759,-77.28701 78.48468,-76.48643 0.42298,0.66556 0.77595,37.9116 0.78437,82.76898 0.012,63.7618 -0.25745,81.90149 -1.23469,83.129 -1.1098,1.39403 -150.39083,87.9696 -154.21519,89.43715 C 173.16746,373.14972 173,367.66357 173,322.34342 z M 162.27458,191.34591 c -2.32398,-0.8229 -6.42537,-3.47413 -9.1142,-5.89162 -15.28861,-13.74578 -12.06428,-38.64154 6.2496,-48.25448 4.35683,-2.2869 6.3144,-2.67175 13.59002,-2.67175 7.27562,0 9.23319,0.38485 13.59002,2.67175 14.21203,7.45988 20.03045,24.836 13.07605,39.05028 -3.3267,6.79954 -10.03388,13.00576 -16.39968,15.17481 -5.71272,1.94652 -15.37421,1.91017 -20.99181,-0.079 z M 81.701006,157.36767 C 81.315453,156.98212 81,136.04805 81,110.84752 l 0,-45.819143 3.75,-2.439711 c 5.061202,-3.292764 84.50336,-49.088176 86.45002,-49.835179 0.94673,-0.363293 19.05466,9.511017 46.92085,25.586075 L 263.5,64.517249 263.75999,110.75862 C 263.90298,136.19138 263.67983,157 263.26411,157 c -0.41573,0 -20.89035,-20.13075 -45.49916,-44.735 L 173.02166,67.529993 127.71184,112.79934 c -24.92041,24.89813 -45.625281,44.95389 -46.010834,44.56833 z"
       id="path3013"
       style="fill:#ef8e25" />
    <path
       d="m 162.27458,191.34591 c -2.32398,-0.8229 -6.42537,-3.47413 -9.1142,-5.89162 -15.28861,-13.74578 -12.06428,-38.64154 6.2496,-48.25448 4.35683,-2.2869 6.3144,-2.67175 13.59002,-2.67175 7.27562,0 9.23319,0.38485 13.59002,2.67175 14.21203,7.45988 20.03045,24.836 13.07605,39.05028 -3.3267,6.79954 -10.03388,13.00576 -16.39968,15.17481 -5.71272,1.94652 -15.37421,1.91017 -20.99181,-0.079 z M 81.701006,157.36767 C 81.315453,156.98212 81,136.04805 81,110.84752 l 0,-45.819143 3.75,-2.439711 c 5.061202,-3.292764 84.50336,-49.088176 86.45002,-49.835179 0.94673,-0.363293 19.05466,9.511017 46.92085,25.586075 L 263.5,64.517249 263.75999,110.75862 C 263.90298,136.19138 263.67983,157 263.26411,157 c -0.41573,0 -20.89035,-20.13075 -45.49916,-44.735 L 173.02166,67.529993 127.71184,112.79934 c -24.92041,24.89813 -45.625281,44.95389 -46.010834,44.56833 z"
       id="path3011"
       style="fill:#003d68" />
    <path
       d="M 81.701006,157.36767 C 81.315453,156.98212 81,136.04805 81,110.84752 l 0,-45.819143 3.75,-2.439711 c 5.061202,-3.292764 84.50336,-49.088176 86.45002,-49.835179 0.94673,-0.363293 19.05466,9.511017 46.92085,25.586075 L 263.5,64.517249 263.75999,110.75862 C 263.90298,136.19138 263.67983,157 263.26411,157 c -0.41573,0 -20.89035,-20.13075 -45.49916,-44.735 L 173.02166,67.529993 127.71184,112.79934 c -24.92041,24.89813 -45.625281,44.95389 -46.010834,44.56833 z"
       id="path3009"
       style="fill:#313131" />
    <path
       d="M 82,110.65499 C 82,69.665482 82.132419,66.195332 83.75,64.794896 87.396669,61.637758 171.13474,13.965241 172.04524,14.52796 172.61071,14.87744 173,25.390999 173,40.313184 l 0,25.19515 -44.75412,44.745836 C 103.63111,134.86438 83.156112,155 82.745879,155 82.335645,155 82,135.04474 82,110.65499 z"
       id="path3007"
       style="fill:#010101" />
  </g>
</svg>
