<svg xmlns="http://www.w3.org/2000/svg" xmlns:xlink="http://www.w3.org/1999/xlink" xmlns:sketch="http://www.bohemiancoding.com/sketch/ns" width="9px" height="8px" viewBox="0 0 9 8" version="1.1"><title>platform_redhat</title><description>Created with Sketch (http://www.bohemiancoding.com/sketch)</description><defs/><g id="Page-1" stroke="none" stroke-width="1" fill="none" fill-rule="evenodd" sketch:type="MSPage"><path d="M4.914 5.8 C4.935 5.9 5 5.9 4.9 6 C4.903 6.1 4.9 6.1 4.8 6.1 C4.773 6.2 4.7 6.2 4.5 6.1 C4.429 6.1 4.4 6.1 4.3 6.1 C4.23 6.1 4.2 6 4.2 5.9 C4.257 5.9 4.4 5.8 4.5 5.9 C4.59 5.9 4.7 6 4.8 6 C4.822 5.9 4.8 5.9 4.9 5.8 C4.899 5.8 4.9 5.8 4.9 5.8 C4.909 5.8 4.9 5.8 4.9 5.8 L4.914 5.8 Z M8.055 4 C8.055 4.8 7.8 5.6 7.4 6.2 C7.253 6.2 7.1 6.2 6.9 6.2 C6.637 6.2 6.4 6.2 6.2 6.3 C6.166 6.3 6.2 6.3 6.2 6.3 C6.151 6.4 6.2 6.4 6.2 6.4 C6.18 6.4 6.1 6.5 6 6.5 C5.682 6.6 5.5 6.9 5.4 7 C5.294 7.1 5 7.2 5 7.1 C5.054 7 5.2 6.9 5.3 6.7 C5.372 6.6 5.4 6.5 5.5 6.4 C5.571 6.3 5.7 6.2 5.7 6 C5.753 5.9 5.7 5.8 5.8 5.7 C5.775 5.6 5.9 5.4 5.9 5.3 C5.868 5.3 5.6 5.4 5.5 5.4 C5.365 5.4 5.2 5.3 5.1 5.3 C5.003 5.3 4.9 5.4 4.8 5.4 C4.723 5.4 4.7 5.4 4.5 5.4 C4.369 5.3 4.2 5.4 3.8 5.4 C3.365 5.4 3 4.9 3 4.9 C2.896 4.8 2.8 4.8 2.7 4.8 C2.671 4.9 2.6 4.9 2.5 4.8 C2.497 4.7 2.4 4.5 2.1 4.4 C1.852 4.3 1.7 4.6 1.7 4.8 C1.742 5 1.9 5 1.9 5.1 C1.982 5.2 2 5.3 2.1 5.3 C2.198 5.4 2.2 5.4 2.2 5.5 C2.183 5.5 2.1 5.5 2.1 5.5 C1.938 5.5 1.9 5.5 1.8 5.5 C1.736 5.4 1.7 5.4 1.6 5.3 C1.555 5.2 1.4 5.1 1.3 5.1 C1.267 5.1 1.2 5.1 1.2 5.2 C0.969 5.3 0.7 5.3 0.5 5.3 L0.211 5.3 C0.074 4.9 0 4.5 0 4 C0 1.8 1.8 0 4 0 C6.252 0 8.1 1.8 8.1 4 L8.055 4 Z M7.302 3.9 C7.39 3.5 7 3.1 6.3 3 C6.26 3.1 6.2 3.3 6 3.4 C5.916 3.4 5.9 3.4 5.9 3.3 C6.013 3.2 6 3.1 6.1 3.1 C6.096 3 6.1 2.9 6 2.6 C5.889 2 5.6 1.3 5.3 1.1 C5.121 0.8 4.7 0.8 4.4 0.9 C4.222 0.9 4 1 3.5 0.9 C2.637 0.7 2.5 1.2 2.5 1.3 C2.417 1.5 2.3 2 2.3 2 C2.263 2.3 2.2 2.6 3.5 2.9 C4.122 3 4.2 3.2 4.2 3.3 C4.228 3.5 4.3 3.6 4.4 3.6 C4.478 3.7 4.4 3.7 4.3 3.8 C4.037 3.8 3.1 3.5 2.5 3.2 C2.053 2.9 2 2.6 2.2 2.4 C1.452 2.4 0.9 2.5 0.8 2.8 C0.67 3.4 2.1 4.4 3.7 4.9 C5.375 5.4 7.1 5 7.3 3.9 L7.302 3.9 Z M3.714 1.9 C3.936 1.9 4 1.8 4 1.8 C3.944 1.7 3.8 1.7 3.6 1.7 C3.415 1.7 3.3 1.7 3.2 1.7 C3.03 1.7 2.9 1.6 2.9 1.5 C2.856 1.5 2.7 1.5 2.7 1.6 C2.614 1.7 2.7 1.9 2.8 1.9 C2.829 1.9 3 2.2 3.1 2.1 C3.201 2 3.2 2 3.7 1.9 L3.714 1.9 Z M4.203 1.1 C4.229 1.1 4.3 1.1 4.3 1.1 C4.532 1.1 4.7 1.2 4.8 1.2 C4.761 1.3 4.7 1.3 4.5 1.4 C4.483 1.4 4.5 1.4 4.5 1.4 C4.477 1.4 4.5 1.4 4.5 1.4 C4.558 1.4 4.6 1.5 4.7 1.5 C4.979 1.5 5.2 1.4 5.2 1.2 C5.196 1.1 5 1 4.7 1 L4.709 1 C4.665 1 4.6 1 4.6 1 C4.42 1 4.3 1.1 4.2 1.1 C4.191 1.1 4.2 1.1 4.2 1.1 C4.187 1.1 4.2 1.1 4.2 1.1 L4.203 1.1 L4.203 1.1 Z" id="platform_redhat" fill="#0C0C0A" sketch:type="MSShapeGroup"/></g></svg>
