<svg xmlns="http://www.w3.org/2000/svg" xmlns:xlink="http://www.w3.org/1999/xlink" xmlns:sketch="http://www.bohemiancoding.com/sketch/ns" width="9px" height="9px" viewBox="0 0 9 9" version="1.1"><title>platform_ubuntu</title><description>Created with Sketch (http://www.bohemiancoding.com/sketch)</description><defs/><g id="Page-1" stroke="none" stroke-width="1" fill="none" fill-rule="evenodd" sketch:type="MSPage"><path d="M2.813 4.2 C2.813 3.5 3.1 2.9 3.6 2.6 L2.868 1.4 C2.25 1.8 1.8 2.5 1.6 3.2 C1.91 3.4 2.1 3.8 2.1 4.3 C2.138 4.7 1.9 5 1.6 5.3 C1.84 6 2.3 6.6 2.9 7 L3.583 5.8 C3.114 5.4 2.8 4.8 2.8 4.2 L2.813 4.2 Z M1.789 4.3 C1.789 4.7 1.4 5.1 0.9 5.1 C0.401 5.1 0 4.7 0 4.3 C0 3.8 0.4 3.4 0.9 3.4 C1.388 3.4 1.8 3.8 1.8 4.3 L1.789 4.3 Z M6.81 6.4 C7.018 6.4 7.2 6.5 7.4 6.6 C7.921 6 8.3 5.2 8.3 4.4 L6.937 4.4 C6.83 5.4 6 6.2 4.9 6.2 C4.583 6.2 4.3 6.2 4 6.1 L3.357 7.3 C3.816 7.5 4.3 7.6 4.9 7.6 C5.117 7.6 5.3 7.6 5.6 7.6 C5.619 6.9 6.2 6.4 6.8 6.4 L6.81 6.4 Z M7.704 7.7 C7.704 8.2 7.3 8.6 6.8 8.6 C6.316 8.6 5.9 8.2 5.9 7.7 C5.916 7.2 6.3 6.8 6.8 6.8 C7.304 6.8 7.7 7.2 7.7 7.7 L7.704 7.7 Z M7.481 1.9 C7.278 2.1 7 2.1 6.8 2.1 C6.077 2.1 5.5 1.6 5.5 0.9 C5.521 0.9 5.5 0.8 5.5 0.8 C5.316 0.7 5.1 0.7 4.9 0.7 C4.328 0.7 3.8 0.9 3.3 1.1 L4.03 2.3 C4.289 2.2 4.6 2.1 4.9 2.1 C5.94 2.1 6.8 2.9 6.9 3.9 L8.322 3.9 C8.261 3.1 8 2.5 7.5 1.9 L7.481 1.9 Z M7.657 0.9 C7.657 1.4 7.3 1.8 6.8 1.8 C6.27 1.8 5.9 1.4 5.9 0.9 C5.87 0.4 6.3 0 6.8 0 C7.258 0 7.7 0.4 7.7 0.9 L7.657 0.9 Z" id="platform_ubuntu" fill="#1B1A19" sketch:type="MSShapeGroup"/></g></svg>
