<svg xmlns="http://www.w3.org/2000/svg" xmlns:xlink="http://www.w3.org/1999/xlink" xmlns:sketch="http://www.bohemiancoding.com/sketch/ns" width="9px" height="8px" viewBox="0 0 9 8" version="1.1"><title>platform_linuxmint</title><description>Created with Sketch (http://www.bohemiancoding.com/sketch)</description><defs/><g id="Page-1" stroke="none" stroke-width="1" fill="none" fill-rule="evenodd" sketch:type="MSPage"><path d="M4.615 1.9 C4.9 1.9 5.1 2 5.3 2.2 C5.55 2 5.8 1.9 6.1 1.9 C6.375 1.9 6.6 2 6.8 2.2 C7.048 2.4 7.2 2.7 7.2 3 L7.16 4.8 C7.127 5.1 7 5.4 6.8 5.7 L6.77 5.7 C6.506 5.9 6.2 6.1 5.8 6.1 L3.376 6.1 C3.079 6 2.8 5.9 2.6 5.7 C2.337 5.4 2.2 5.1 2.2 4.7 L2.205 1.3 L2.844 1.3 L2.844 4.6 C2.844 5 3.1 5.4 3.5 5.4 L5.676 5.4 C6.131 5.4 6.5 5.1 6.5 4.7 L6.481 3 C6.481 2.9 6.4 2.8 6.4 2.7 C6.283 2.6 6.2 2.6 6.1 2.6 C5.971 2.6 5.9 2.6 5.8 2.7 C5.725 2.8 5.7 2.9 5.7 3 L5.688 4.5 L5.012 4.5 L5.012 3 C5.012 2.9 5 2.8 4.9 2.7 C4.813 2.6 4.7 2.6 4.6 2.6 C4.503 2.6 4.4 2.6 4.3 2.7 C4.256 2.8 4.2 2.9 4.2 3 L4.219 4.5 L3.542 4.5 L3.542 3 C3.542 2.7 3.7 2.4 3.9 2.2 C4.066 2 4.3 1.9 4.6 1.9 L4.615 1.9 Z M3.849 7.4 L8.269 7.4 L8.269 2.7 C8.269 1.2 6.9 0 5.4 0 L4.111 0 L0 0 L0 2.4 L0.975 2.4 L0.975 2.8 L0.976 4.7 C0.976 6.2 2.3 7.4 3.8 7.4 L3.849 7.4 Z M7.643 6.2 C7.643 6.5 7.3 6.8 6.9 6.8 L3.849 6.8 C2.609 6.8 1.6 5.9 1.6 4.7 L1.601 2.4 C1.601 2 1.3 1.7 1 1.7 L0.628 1.7 L0.628 0.6 L4.109 0.6 L4.109 0.6 L5.397 0.6 C6.637 0.6 7.6 1.6 7.6 2.7 L7.643 6.2 L7.643 6.2 Z" id="platform_linuxmint" fill="#1B1A19" sketch:type="MSShapeGroup"/></g></svg>
