<svg xmlns="http://www.w3.org/2000/svg" xmlns:xlink="http://www.w3.org/1999/xlink" xmlns:sketch="http://www.bohemiancoding.com/sketch/ns" width="9px" height="8px" viewBox="0 0 9 8" version="1.1"><title>platform_freebsd</title><description>Created with Sketch (http://www.bohemiancoding.com/sketch)</description><defs/><g id="Page-1" stroke="none" stroke-width="1" fill="none" fill-rule="evenodd" sketch:type="MSPage"><path d="M8.00829815 0.1 C8.43729815 0.6 7.2 2.5 7 2.7 C6.84429815 2.9 6.3 2.7 5.9 2.2 C5.47429815 1.8 5.3 1.3 5.5 1.1 C5.69229815 0.9 7.6 -0.3 8 0.1 L8.00829815 0.1 Z M1.98629815 0.6 C1.33129815 0.2 0.4 -0.2 0.1 0.1 C-0.199701853 0.4 0.2 1.4 0.6 2 C0.940298147 1.4 1.4 0.9 2 0.6 L1.98629815 0.6 Z M7.35329815 2.5 C7.41329815 2.7 7.4 2.9 7.3 3 C7.07529815 3.2 6.5 3 5.9 2.4 C5.86229815 2.4 5.8 2.4 5.8 2.3 C5.58429815 2.1 5.4 1.9 5.3 1.7 C5.13329815 1.4 5.1 1 5.2 0.9 C5.31229815 0.8 5.4 0.8 5.6 0.8 C5.69929815 0.8 5.8 0.7 6 0.6 C5.41429815 0.3 4.8 0.2 4.2 0.2 C2.00129815 0.2 0.3 1.9 0.3 4.1 C0.255298147 6.2 2 8 4.2 8 C6.30629815 8 8.1 6.2 8.1 4.1 C8.05029815 3.4 7.9 2.7 7.5 2.2 C7.48129815 2.3 7.4 2.4 7.4 2.5 L7.35329815 2.5 Z" id="platform_freebsd" fill="#0B0B0A" sketch:type="MSShapeGroup"/></g></svg>
