<?xml version="1.0" encoding="utf-8"?>
<!-- Generator: Adobe Illustrator 18.1.1, SVG Export Plug-In . SVG Version: 6.00 Build 0)  -->
<svg version="1.1" id="Layer_1" xmlns="http://www.w3.org/2000/svg" xmlns:xlink="http://www.w3.org/1999/xlink" x="0px" y="0px"
	 viewBox="0 0 16 16" enable-background="new 0 0 16 16" xml:space="preserve">
<g>
	<polygon fill="#5C707D" points="4.8,6.7 4.2,8.1 5.3,8.1 4.8,6.7 	"/>
	<path fill="#5C707D" d="M8.1,1C4.2,1,1.1,4.1,1.1,8c0,3.8,3.1,6.9,6.9,6.9S15,11.8,15,8C15,4.1,11.9,1,8.1,1z M6,9.8L5.6,8.7H4
		L3.5,9.8l-0.8,0l1.7-4.2h0.7l1.7,4.2H6z M8,9.8H7.2V5.6H8V9.8z M11.6,9.8l-1.1-1.6L9.3,9.8H8.4L10,7.6l-1.5-2h0.9l1.1,1.5l1.1-1.5
		h0.9l-1.5,2l1.6,2.1H11.6z"/>
	<path fill="#5C707D" d="M8.1,0c-4.4,0-8,3.6-8,8c0,4.4,3.6,8,8,8s8-3.6,8-8C16,3.6,12.5,0,8.1,0z M13.5,13.4
		c-1.4,1.4-3.3,2.2-5.4,2.2c-2.1,0-4-0.9-5.4-2.2C1.3,12,0.4,10.1,0.4,8c0-2.1,0.9-4,2.2-5.4C4,1.2,5.9,0.3,8.1,0.3
		c2.1,0,4,0.9,5.4,2.2C14.9,4,15.7,5.9,15.7,8C15.7,10.1,14.9,12,13.5,13.4z"/>
</g>
</svg>
