<?xml version="1.0" encoding="UTF-8"?>
<svg width="9px" height="9px" viewBox="0 0 9 9" version="1.1" xmlns="http://www.w3.org/2000/svg" xmlns:xlink="http://www.w3.org/1999/xlink">
    <title>platform_almalinux</title>
    <g id="Page-1" stroke="none" stroke-width="1" fill="none" fill-rule="evenodd">
        <g id="platform_almalinux" transform="translate(0.000000, 0.000000)" fill="#000000" fill-rule="nonzero">
            <path d="M8.27525437,5.08245449 C8.65868328,5.05231952 8.96837587,5.30846673 8.99787041,5.70022128 C9.02736494,6.10704332 8.74716688,6.43852794 8.36373796,6.4686629 C7.99505631,6.49879787 7.67061645,6.21251569 7.64112192,5.83582863 C7.61162739,5.42900659 7.87707818,5.12765694 8.27525437,5.08245449 Z" id="path22"></path>
            <path d="M3.61511827,8.29182831 C3.61511827,7.90007376 3.91006359,7.59872411 4.26399798,7.59872411 C4.61793237,7.59872411 4.95711949,7.93020873 4.95711949,8.30689579 C4.95711949,8.66851538 4.66217417,8.98493252 4.32298705,9 C3.89531633,9 3.61511827,8.72878531 3.61511827,8.29182831 L3.61511827,8.29182831 Z" id="path24"></path>
            <path d="M4.66217417,3.89212335 C4.6031851,3.92225832 4.57369057,3.87705587 4.5589433,3.83185342 C4.01329446,2.79219711 4.17551438,1.48132606 5.13408668,0.697816953 C5.38479021,0.486872195 5.85670272,0.441669747 6.06316445,0.652614505 C6.15164804,0.727951919 6.16639531,0.818356815 6.18114258,0.923829194 C6.21063711,1.14984144 6.25487891,1.37585368 6.40235157,1.55666353 C6.5645715,1.7525408 6.77103322,1.82787822 7.00698948,1.81281074 C7.21345121,1.81281074 7.41991293,1.78267577 7.55263833,2.02375549 C7.62637466,2.15936284 7.59688012,2.68672473 7.478902,2.79219711 C7.41991293,2.83739956 7.37567113,2.8072646 7.33142933,2.79219711 C6.99224221,2.65658977 6.63830783,2.65658977 6.28437344,2.7168597 C6.16639531,2.73192718 6.10740625,2.70179222 6.10740625,2.56618487 C6.09265898,2.34017263 6.04841718,2.12922787 5.93043905,1.9333506 C5.70923006,1.52652856 5.29630661,1.51146108 5.03085582,1.88814815 C4.80964683,2.1894978 4.75065776,2.55111739 4.6916687,2.91273698 C4.63267963,3.22915411 4.6474269,3.56063873 4.66217417,3.89212335 C4.66217417,3.89212335 4.6474269,3.89212335 4.66217417,3.89212335 L4.66217417,3.89212335 Z" id="path26"></path>
            <path d="M5.03085582,4.11813559 C5.00136129,4.07293315 5.01610855,4.0277307 5.06035035,3.99759573 C5.90094452,3.21408663 7.15446214,3.0634118 8.1277817,3.83185342 C8.37848523,4.04279818 8.54070516,4.47975518 8.40797976,4.73590239 C8.3489907,4.84137477 8.27525437,4.88657721 8.18677077,4.91671218 C7.98030904,5.00711708 7.78859458,5.09752197 7.65586919,5.29339925 C7.52314379,5.48927652 7.49364926,5.71528876 7.55263833,5.95636849 C7.59688012,6.15224576 7.67061645,6.36319052 7.478902,6.54400031 C7.37567113,6.64947269 6.87426408,6.73987759 6.74153869,6.64947269 C6.68254962,6.60427025 6.69729689,6.5590678 6.71204416,6.49879787 C6.75628596,6.1221108 6.66780236,5.77555869 6.53507696,5.44407407 C6.49083517,5.32353421 6.50558243,5.26326428 6.62356056,5.23312932 C6.83002229,5.17285939 7.02173675,5.06738701 7.16920941,4.91671218 C7.49364926,4.60029504 7.41991293,4.19347301 6.99224221,4.01266322 C6.65305509,3.86198839 6.29912071,3.89212335 5.95993358,3.92225832 C5.63549373,3.9373258 5.32580114,4.0277307 5.03085582,4.11813559 Z" id="path28"></path>
            <path d="M4.83914136,4.50989015 C4.88338316,4.4646877 4.91287769,4.47975518 4.95711949,4.50989015 C5.93043905,5.11258945 6.4318461,6.30292059 5.98942812,7.46311676 C5.87144999,7.76446642 5.48802107,8.06581607 5.20782301,7.99047866 C5.08984488,7.96034369 5.03085582,7.90007376 4.97186675,7.82473635 C4.83914136,7.64392655 4.6916687,7.47818424 4.47045971,7.40284683 C4.23450345,7.32750942 4.02804172,7.37271186 3.82158,7.49325173 C3.6446128,7.59872411 3.46764561,7.73433145 3.24643662,7.59872411 C3.11371122,7.52338669 2.89250223,7.05629473 2.93674403,6.9056199 C2.96623856,6.84534997 3.02522763,6.84534997 3.08421669,6.84534997 C3.45289834,6.78508004 3.74784367,6.60427025 4.02804172,6.36319052 C4.11652532,6.28785311 4.19026165,6.28785311 4.26399798,6.39332549 C4.38197611,6.57413528 4.52944877,6.72481011 4.72116323,6.83028249 C5.10459215,7.05629473 5.4732738,6.86041745 5.5175156,6.40839297 C5.5617574,6.0317059 5.429032,5.70022128 5.31105388,5.36873666 C5.17832848,5.06738701 5.01610855,4.78110483 4.83914136,4.50989015 L4.83914136,4.50989015 Z" id="path30"></path>
            <path d="M4.36722884,4.60029504 C4.30823978,4.9016447 4.17551438,5.18792687 3.99854719,5.44407407 C3.46764561,6.25771814 2.70078777,6.58920276 1.75696274,6.49879787 C1.41777566,6.4686629 1.13757761,6.18238073 1.10808308,5.89609856 C1.09333581,5.77555869 1.12283034,5.6851538 1.19656667,5.5947489 C1.29979754,5.45914156 1.38828113,5.3386017 1.43252293,5.17285939 C1.52100648,4.84137477 1.4030284,4.57016008 1.16707214,4.32908035 C0.842632285,3.99759573 0.886874084,3.69624608 1.270303,3.45516635 C1.3145448,3.42503139 1.37353387,3.39489642 1.43252293,3.36476146 C1.52100648,3.31955901 1.59474281,3.31955901 1.62423735,3.42503139 C1.75696274,3.77158349 2.02241353,4.0277307 2.31735885,4.23867546 C2.42058972,4.32908035 2.42058972,4.38935028 2.33210612,4.49482266 C2.15513893,4.69069994 2.05190806,4.93177966 2.0371608,5.20299435 C2.00766626,5.53447897 2.19938072,5.74542373 2.52382058,5.74542373 C2.7302823,5.74542373 2.92199676,5.67008632 3.09896396,5.57968142 C3.55612921,5.3386017 3.91006359,4.99204959 4.24925071,4.63043001 C4.29349251,4.61536252 4.30823978,4.58522756 4.36722884,4.60029504 Z" id="path32"></path>
            <path d="M1.9486772,1.43612361 C1.97817173,1.43612361 2.05190806,1.45119109 2.12564439,1.46625857 C2.67129324,1.57173101 3.01048036,1.37585368 3.18744755,0.848491781 C3.30542568,0.501939678 3.55612921,0.396467299 3.88056906,0.577277091 C3.89531633,0.577277091 3.89531633,0.592344574 3.91006359,0.592344574 C4.24925071,0.78822185 4.24925071,0.818356815 4.04278899,1.11970647 C3.8658218,1.36078619 3.7773382,1.63200094 3.7330964,1.91828312 C3.70360187,2.08402543 3.6446128,2.11416039 3.49714014,2.05389046 C3.26118388,1.96348556 3.01048036,1.96348556 2.75977684,2.05389046 C2.47957878,2.14429536 2.36160065,2.40044256 2.45008425,2.68672473 C2.56806238,3.0634118 2.89250223,3.22915411 3.17270029,3.42503139 C3.45289834,3.62090866 3.7773382,3.72638104 4.08703079,3.86198839 C4.13127259,3.87705587 4.20500892,3.87705587 4.19026165,3.95239328 C4.17551438,3.99759573 4.11652532,3.99759573 4.05753626,3.99759573 C3.39390928,4.0277307 2.75977684,3.92225832 2.24362252,3.47023384 C1.75696274,3.0634118 1.4030284,2.56618487 1.46201746,1.87308067 C1.50625922,1.64706843 1.66847914,1.48132606 1.9486772,1.43612361 L1.9486772,1.43612361 Z" id="path34"></path>
            <path d="M0.739401423,5.67008632 C0.385467036,5.71528876 0.0315326443,5.41393911 0.00203811207,5.03725204 C-0.0274564202,4.67563246 0.267488907,4.31401287 0.606676027,4.2838779 C0.990104947,4.23867546 1.34403933,4.50989015 1.37353387,4.87150973 C1.38828113,5.21806183 1.16707214,5.63995135 0.739401423,5.67008632 L0.739401423,5.67008632 Z" id="path36"></path>
            <path d="M6.93325315,0.306062402 C7.3019348,0.275927437 7.65586919,0.577277091 7.68536372,0.95396416 C7.71485825,1.31558375 7.41991293,1.66213591 7.06597854,1.69227087 C6.68254962,1.72240584 6.3433625,1.43612361 6.31386797,1.05943654 C6.28437344,0.682749471 6.54982423,0.336197368 6.93325315,0.306062402 Z" id="path38"></path>
            <path d="M3.08421669,0.592344574 C3.12845849,0.984099125 2.8630077,1.31558375 2.46483151,1.37585368 C2.12564439,1.42105612 1.77171001,1.13477395 1.72746821,0.803289332 C1.68322641,0.366332333 1.91918267,0.0499152018 2.31735885,0.00471275357 C2.68604051,-0.0404896946 3.03997489,0.245792471 3.08421669,0.592344574 Z" id="path40"></path>
        </g>
    </g>
</svg>