<svg xmlns="http://www.w3.org/2000/svg" xmlns:xlink="http://www.w3.org/1999/xlink" xmlns:sketch="http://www.bohemiancoding.com/sketch/ns" width="7px" height="8px" viewBox="0 0 7 8" version="1.1"><title>platform_debian</title><description>Created with Sketch (http://www.bohemiancoding.com/sketch)</description><defs/><g id="Page-1" stroke="none" stroke-width="1" fill="none" fill-rule="evenodd" sketch:type="MSPage"><path d="M3.81025371 4.2 C3.91925371 4.2 4 4.2 4.1 4.2 C4.09625371 4.2 4.1 4.2 4 4.3 C3.83525371 4.3 3.7 4.2 3.8 4.2 M4.51525371 4 C4.59325371 3.9 4.7 3.8 4.7 3.7 C4.65325371 3.8 4.6 3.8 4.6 3.9 C4.31625371 4.1 4.5 3.8 4.6 3.7 C4.29725371 4.1 4.5 3.9 4.5 4 M4.77625371 3.3 C4.79225371 3.1 4.7 3.2 4.7 3.3 C4.73225371 3.3 4.8 3.4 4.8 3.3 M3.31125371 0.1 C3.38125371 0.1 3.5 0.1 3.5 0.1 C3.52825371 0.1 3.5 0.1 3.3 0.1 M3.45125371 0.1 L3.40225371 0.2 L3.44825371 0.1 L3.45125371 0.1 M5.63925371 3.4 C5.64725371 3.6 5.6 3.7 5.5 3.9 L5.40025371 4 C5.30725371 4.2 5.4 4.1 5.3 4.2 C5.19725371 4.4 4.9 4.6 4.8 4.7 C4.73825371 4.7 4.9 4.6 4.9 4.6 C4.67525371 4.7 4.7 4.8 4.4 4.8 L4.40825371 4.8 C3.67425371 5.2 2.7 4.5 2.7 3.5 C2.66225371 3.6 2.6 3.6 2.6 3.6 C2.59325371 3.1 2.9 2.7 3.3 2.5 C3.71825371 2.2 4.2 2.3 4.5 2.6 C4.35825371 2.4 4 2.2 3.6 2.2 C3.23725371 2.2 2.9 2.4 2.8 2.7 C2.55225371 2.8 2.5 3.2 2.4 3.3 C2.32525371 4.1 2.7 4.5 3.2 4.9 C3.32125371 5 3.3 5 3.3 5 C3.07925371 5 2.9 4.8 2.8 4.7 C2.84025371 4.8 2.9 4.9 3 5 C2.84825371 4.9 2.6 4.5 2.5 4.5 C2.84725371 5.1 3.8 5.5 4.3 5.3 C4.05225371 5.3 3.8 5.3 3.5 5.2 C3.39925371 5.1 3.3 5 3.3 5 C3.95125371 5.2 4.6 5.2 5.2 4.7 C5.37525371 4.6 5.5 4.4 5.6 4.4 C5.51225371 4.5 5.6 4.5 5.5 4.5 C5.68825371 4.3 5.5 4.4 5.7 4.1 L5.77325371 4.2 C5.74325371 4 6 3.8 6 3.5 C6.05325371 3.4 6.1 3.6 6 3.8 C6.08625371 3.6 6 3.5 6 3.3 C6.06825371 3.4 6.1 3.5 6.1 3.5 C6.05825371 3.3 6.2 3.1 6.2 3 C6.18125371 3 6.1 3.1 6.1 2.8 C6.10525371 2.7 6.1 2.8 6.1 2.7 C6.12525371 2.7 6.1 2.6 6 2.5 C6.05225371 2.4 6.1 2.6 6.1 2.6 C6.11225371 2.4 6.1 2.3 6.1 2.2 C5.96025371 2 6 2.2 5.9 2.1 C5.82625371 1.8 6 2 6.1 1.9 C6.22825371 2.1 6.3 2.5 6.4 2.7 C6.33925371 2.5 6.3 2.3 6.2 2.1 C6.26725371 2.1 6.1 1.7 6.3 2 C6.11725371 1.4 5.6 0.8 5.1 0.5 C5.13225371 0.6 5.2 0.7 5.2 0.7 C4.93325371 0.5 5 0.5 4.9 0.4 C4.73825371 0.4 4.7 0.5 4.6 0.4 C4.20725371 0.2 4.1 0.3 3.8 0.1 L3.79825371 0.2 C3.54425371 0.1 3.5 0.2 3.2 0.2 C3.21125371 0.2 3.3 0.2 3.4 0.2 C3.15625371 0.2 3.2 0.1 2.9 0.2 C2.98725371 0.1 3.1 0.1 3.1 0.1 C2.91325371 0.1 2.6 0.2 2.7 0.1 C2.39525371 0.2 1.8 0.4 1.5 0.7 L1.48125371 0.7 C1.33225371 0.8 0.8 1.2 0.8 1.4 L0.752253706 1.4 C0.674253706 1.6 0.6 1.7 0.6 1.9 C0.462253706 2 0.4 1.9 0.4 1.9 C0.230253706 2.4 0.1 2.7 0 3 C0.106253706 3.1 0 3.5 0.1 3.9 C-0.0307462935 5.7 1.3 7.4 2.8 7.9 C3.05325371 7.9 3.4 7.9 3.7 7.9 C3.33025371 7.8 3.3 7.9 3 7.8 C2.73825371 7.7 2.7 7.5 2.5 7.4 L2.58925371 7.5 C2.27025371 7.4 2.4 7.4 2.1 7.3 L2.21325371 7.2 C2.11025371 7.2 1.9 7 1.9 6.9 L1.77925371 6.9 C1.64325371 6.8 1.6 6.7 1.6 6.6 L1.53925371 6.6 C1.49725371 6.6 1 6 1.3 6.1 C1.23225371 6.1 1.2 6.1 1.1 5.9 L1.15825371 5.9 C1.04425371 5.7 0.9 5.5 1 5.5 C1.01525371 5.6 1.1 5.6 1.1 5.6 C0.810253706 4.9 0.8 5.6 0.6 4.9 L0.621253706 4.9 C0.586253706 4.8 0.6 4.8 0.5 4.7 L0.556253706 4.5 C0.347253706 4.3 0.5 3.5 0.5 3 C0.548253706 2.9 0.7 2.7 0.8 2.4 L0.747253706 2.4 C0.882253706 2.1 1.5 1.4 1.8 1.5 C1.96125371 1.3 1.8 1.5 1.8 1.4 C2.07625371 1.1 2.2 1.2 2.4 1.1 C2.61625371 1 2.2 1.2 2.3 1.1 C2.69525371 1 2.6 0.8 3.1 0.8 C3.15225371 0.8 3 0.8 2.9 0.9 C3.25525371 0.7 4 0.8 4.4 1 C4.97225371 1.2 5.6 2 5.6 2.7 L5.62825371 2.7 C5.61425371 3 5.7 3.3 5.6 3.6 L5.63925371 3.4 M2.37425371 4.4 L2.35625371 4.5 C2.44325371 4.6 2.5 4.7 2.6 4.8 C2.54225371 4.6 2.5 4.6 2.4 4.4 M2.57925371 4.4 C2.53325371 4.3 2.5 4.3 2.5 4.2 C2.50525371 4.3 2.6 4.4 2.6 4.5 L2.57925371 4.4 M6.19425371 3.6 L6.17425371 3.6 C6.13925371 3.9 6.1 4.1 5.9 4.4 C6.07525371 4.1 6.2 3.8 6.2 3.6 M3.33725371 0 C3.42625371 0 3.6 0 3.7 0 C3.52725371 0 3.4 0 3.3 0 L3.33725371 0 M0.216253706 1.7 C0.236253706 1.9 0.1 2 0.3 1.8 C0.348253706 1.6 0.2 1.8 0.2 1.7 M0.00625370646 2.6 C0.0472537065 2.5 0.1 2.4 0.1 2.3 C-0.0437462935 2.4 0 2.5 0 2.6 M3.62625371 2.2 C3.23725371 2.2 2.9 2.4 2.8 2.7 C2.55225371 2.8 2.5 3.2 2.4 3.3" id="platform_debian" fill="#1B1A19" sketch:type="MSShapeGroup"/></g></svg>
