<svg xmlns="http://www.w3.org/2000/svg" xmlns:xlink="http://www.w3.org/1999/xlink" xmlns:sketch="http://www.bohemiancoding.com/sketch/ns" width="9px" height="5px" viewBox="0 0 9 5" version="1.1"><title>platform_suse</title><description>Created with Sketch (http://www.bohemiancoding.com/sketch)</description><defs/><g id="Page-1" stroke="none" stroke-width="1" fill="none" fill-rule="evenodd" sketch:type="MSPage"><path d="M7.80556349 0.7 C8.00856349 0.7 8.2 0.9 8.2 1.1 C8.15856349 1.2 8.1 1.3 8 1.4 C7.97256349 1.4 7.9 1.5 7.8 1.5 C7.57756349 1.5 7.4 1.3 7.4 1.1 C7.42856349 1 7.5 0.9 7.5 0.8 C7.61356349 0.8 7.7 0.7 7.8 0.7 L7.80556349 0.7 Z M8.02956349 1 C8.02956349 1 8 0.9 7.9 0.9 C7.77556349 0.9 7.7 1 7.7 1 C7.70256349 1.1 7.8 1.1 7.9 1.1 C7.95656349 1.1 8 1.1 8 1 L8.02956349 1 Z M8.62256349 1.8 L8.66156349 1.8 C8.67156349 1.8 8.7 1.8 8.7 1.9 C8.65956349 1.9 8.6 2 8.6 2 L8.62156349 2 C8.60856349 2.1 8.6 2.1 8.6 2.1 C8.49856349 2.2 8.4 2.2 8.2 2.3 C7.93556349 2.4 7.5 2.5 7.1 2.5 C6.93256349 2.5 6.8 2.5 6.7 2.5 C6.28156349 2.4 6 2.4 5.9 2.7 C5.87256349 3.2 6.3 3.7 6.3 3.7 L6.28856349 3.7 L6.27456349 3.7 C6.27456349 3.7 5.6 3.4 5.6 3.4 L5.58256349 3.4 L5.56556349 3.4 C5.51556349 3.3 5.4 3.2 5.2 3 C4.82556349 2.5 4.4 2.5 4 2.6 C3.93056349 2.6 3.8 2.6 3.7 2.7 C3.56556349 2.9 3.6 3.3 3.6 3.4 C3.60856349 3.6 3.6 3.6 3.6 3.6 L3.61756349 3.6 L3.60456349 3.6 L3.59756349 3.6 L3.05956349 3.3 L3.03956349 3.2 C3.02556349 3.2 3 3.1 3 3 C2.78756349 2.5 2.4 2.1 1.9 2.1 C1.55756349 2 1 2 0.7 2.6 C0.531563488 2.8 0.5 3.1 0.7 3.4 C0.826563488 3.7 1.1 3.9 1.4 3.9 C1.69656349 3.9 1.9 3.9 2.1 3.7 C2.18256349 3.5 2.2 3.3 2.1 3.1 C2.01656349 2.9 1.9 2.8 1.7 2.8 C1.50456349 2.8 1.4 2.8 1.3 2.9 C1.33356349 2.9 1.3 3 1.3 3 L1.31056349 3 C1.31056349 3.2 1.4 3.2 1.5 3.2 C1.48356349 3.2 1.5 3.2 1.6 3.2 L1.60656349 3.2 L1.62456349 3.2 L1.63856349 3.2 C1.73756349 3.2 1.8 3.2 1.9 3.3 C1.86656349 3.3 1.9 3.4 1.9 3.4 C1.86856349 3.4 1.8 3.5 1.8 3.5 L1.78356349 3.5 L1.77856349 3.5 L1.76856349 3.5 C1.74056349 3.6 1.7 3.6 1.7 3.6 C1.60856349 3.6 1.5 3.6 1.5 3.6 C1.23256349 3.6 0.9 3.4 0.9 3 C0.895563488 2.8 1 2.6 1.2 2.5 C1.41456349 2.4 1.8 2.3 2.1 2.5 C2.58256349 2.8 2.7 3.3 2.6 3.7 C2.41756349 4.2 2 4.4 1.3 4.4 C0.909563488 4.4 0.5 4.1 0.3 3.8 C0.161563488 3.6 0.1 3.5 0 3.3 C-0.0564365125 2.9 0 2.5 0.1 2.3 C0.349563488 1.7 0.8 1.2 1.4 0.8 L1.48756349 0.8 C2.86756349 -0.1 3.8 -0 4.6 0 C5.40056349 0 6.3 0.3 6.4 0.4 C6.42456349 0.3 6.4 0.1 6.4 0.1 L6.43256349 0.1 L6.44356349 0.1 C6.49956349 0.1 7.7 0.3 8.2 0.6 C8.28456349 0.6 8.3 0.6 8.4 0.7 C8.49556349 0.8 8.7 1.4 8.7 1.6 L8.69456349 1.6 C8.68656349 1.6 8.7 1.6 8.6 1.6 C8.52756349 1.7 8.2 1.9 7.9 1.8 C7.57156349 1.8 7.2 1.6 6.6 1.3 C6.66956349 1.4 6.8 1.6 6.8 1.6 L6.79956349 1.7 C6.87256349 1.7 7.6 2.1 7.9 2 C8.20356349 2 8.5 1.9 8.6 1.8 L8.62256349 1.8 Z M8.29656349 1.1 C8.30656349 0.8 8.1 0.6 7.8 0.6 C7.65856349 0.6 7.5 0.6 7.4 0.7 C7.32456349 0.8 7.3 1 7.3 1.1 C7.25156349 1.4 7.5 1.6 7.8 1.6 C7.89956349 1.6 8 1.6 8.1 1.5 C8.23356349 1.4 8.3 1.3 8.3 1.1 L8.29656349 1.1 Z" id="platform_suse" fill="#1B1A19" sketch:type="MSShapeGroup"/></g></svg>
