<svg xmlns="http://www.w3.org/2000/svg" xmlns:xlink="http://www.w3.org/1999/xlink" xmlns:sketch="http://www.bohemiancoding.com/sketch/ns" width="9px" height="6px" viewBox="0 0 9 6" version="1.1"><title>platform_oracle</title><description>Created with Sketch (http://www.bohemiancoding.com/sketch)</description><defs/><g id="Page-1" stroke="none" stroke-width="1" fill="none" fill-rule="evenodd" sketch:type="MSPage"><path d="M5.668 0 L2.621 0 C1.174 0 0 1.2 0 2.6 C0 4.1 1.2 5.2 2.6 5.2 L5.668 5.2 C7.115 5.2 8.3 4.1 8.3 2.6 C8.289 1.2 7.1 0 5.7 0 L5.668 0 Z M5.6 4.3 L2.689 4.3 C1.751 4.3 1 3.6 1 2.6 C0.991 1.7 1.8 0.9 2.7 0.9 L5.6 0.9 C6.537 0.9 7.3 1.7 7.3 2.6 C7.297 3.6 6.5 4.3 5.6 4.3 L5.6 4.3 Z" id="platform_oracle" fill="#1B1A19" sketch:type="MSShapeGroup"/></g></svg>
