<svg xmlns="http://www.w3.org/2000/svg" xmlns:xlink="http://www.w3.org/1999/xlink" xmlns:sketch="http://www.bohemiancoding.com/sketch/ns" width="9px" height="9px" viewBox="0 0 9 9" version="1.1"><title>platform_smartos</title><description>Created with Sketch (http://www.bohemiancoding.com/sketch)</description><defs/><g id="Page-1" stroke="none" stroke-width="1" fill="none" fill-rule="evenodd" sketch:type="MSPage"><path d="M3.81977449 4.6 C3.00777449 5.3 2.3 5.7 1.6 6 C0.454774491 4.6 -0 2.5 0 2.2 C0.0447744912 2 1.2 1.1 1.8 0.6 C1.82777449 1.9 2.5 3.2 3.8 4.6 L3.81977449 4.6 Z M2.25577449 0.5 C2.24377449 0.7 2.3 0.8 2.3 1.1 C2.44177449 1 2.7 0.8 2.9 0.7 C2.53977449 0.5 2.3 0.5 2.3 0.5 L2.25577449 0.5 Z M2.50277449 1.6 C2.81477449 2.3 3.3 3 3.9 3.8 C5.30677449 2.5 6.6 1.8 7.9 1.8 C7.45477449 1.2 6.5 0 6.3 0 C6.28077449 0 6.3 0 6.2 0 C5.84277449 0 3.9 0.5 2.5 1.6 L2.50277449 1.6 Z M7.43377449 2.3 C7.52577449 2.4 7.7 2.7 7.8 2.9 C7.98077449 2.5 8 2.3 8 2.3 C7.77077449 2.2 7.7 2.3 7.4 2.3 L7.43377449 2.3 Z M4.67177449 3.9 C5.98377449 5.3 6.7 6.6 6.7 7.9 C7.26177449 7.4 8.4 6.5 8.5 6.3 C8.54077449 6 8 3.9 6.9 2.5 C6.17677449 2.8 5.5 3.2 4.7 3.9 L4.67177449 3.9 Z M5.62877449 7.8 C5.95177449 8 6.2 8 6.2 8 C6.24777449 7.8 6.2 7.7 6.2 7.4 C6.05077449 7.5 5.7 7.7 5.6 7.8 L5.62877449 7.8 Z M0.623774491 6.7 C1.03577449 7.3 2 8.5 2.2 8.5 C2.20977449 8.5 2.2 8.5 2.2 8.5 C2.64977449 8.5 4.6 8 6 6.9 C5.67777449 6.2 5.2 5.5 4.6 4.7 C3.18477449 6 1.9 6.7 0.6 6.7 L0.623774491 6.7 Z M0.476774491 6.2 C0.720774491 6.3 0.8 6.2 1.1 6.2 C0.965774491 6.1 0.8 5.8 0.7 5.6 C0.510774491 6 0.5 6.2 0.5 6.2 L0.476774491 6.2 Z" id="platform_smartos" fill="#1A1918" sketch:type="MSShapeGroup"/></g></svg>
