<svg xmlns="http://www.w3.org/2000/svg" xmlns:xlink="http://www.w3.org/1999/xlink" xmlns:sketch="http://www.bohemiancoding.com/sketch/ns" width="9px" height="9px" viewBox="0 0 9 9" version="1.1"><title>platform_centos</title><description>Created with Sketch (http://www.bohemiancoding.com/sketch)</description><defs/><g id="Page-1" stroke="none" stroke-width="1" fill="none" fill-rule="evenodd" sketch:type="MSPage"><path d="M1.218 1.2 L2.612 1.2 L2.003 1.8 L3.843 3.7 L3.843 3.8 L3.695 3.8 L1.857 2 L1.218 2.6 L1.218 1.2 L1.218 1.2 Z M5.846 1.2 L6.434 1.8 L4.573 3.7 L4.573 3.8 L4.721 3.8 L6.581 2 L7.198 2.6 L7.198 1.2 L5.846 1.2 L5.846 1.2 Z M4.573 4.6 L4.573 4.7 L6.412 6.6 L5.804 7.2 L7.198 7.2 L7.198 5.8 L6.56 6.4 L4.721 4.6 L4.573 4.6 L4.573 4.6 Z M3.695 4.6 L1.835 6.4 L1.218 5.8 L1.218 7.2 L2.57 7.2 L1.982 6.6 L3.843 4.7 L3.843 4.6 L3.695 4.6 L3.695 4.6 Z M1.218 3 L1.218 3.8 L3.326 3.8 L1.857 2.4 L1.218 3 L1.218 3 Z M3.326 4.6 L1.218 4.6 L1.218 5.4 L1.835 6.1 L3.326 4.6 L3.326 4.6 Z M0 4.2 L0.957 5.2 L0.957 4.3 L3.587 4.3 L3.692 4.2 L3.587 4.1 L0.957 4.1 L0.957 3.3 L0 4.2 L0 4.2 Z M5.09 3.8 L7.198 3.8 L7.198 3 L6.581 2.3 L5.09 3.8 L5.09 3.8 Z M7.198 5.4 L7.198 4.6 L5.09 4.6 L6.56 6 L7.198 5.4 L7.198 5.4 Z M4.725 4.2 L4.829 4.3 L7.46 4.3 L7.46 5.1 L8.416 4.2 L7.46 3.2 L7.46 4.1 L4.829 4.1 L4.725 4.2 L4.725 4.2 Z M4.573 5.1 L4.573 7.2 L5.434 7.2 L6.043 6.6 L4.573 5.1 L4.573 5.1 Z M4.104 4.8 L4.104 7.4 L3.201 7.4 L4.187 8.4 L5.173 7.4 L4.312 7.4 L4.312 4.8 L4.208 4.7 L4.104 4.8 L4.104 4.8 Z M2.352 6.6 L2.94 7.2 L3.843 7.2 L3.843 5.1 L2.352 6.6 L2.352 6.6 Z M4.573 3.3 L6.043 1.9 L5.434 1.2 L4.573 1.2 L4.573 3.3 L4.573 3.3 Z M4.104 3.6 L4.208 3.7 L4.312 3.6 L4.312 1 L5.173 1 L4.187 0 L3.201 1 L4.104 1 L4.104 3.6 L4.104 3.6 Z M2.352 1.8 L3.843 3.3 L3.843 1.2 L2.94 1.2 L2.352 1.8 L2.352 1.8 Z" id="Imported-Layers" fill="#1A1918" sketch:type="MSShapeGroup"/></g></svg>
