<svg xmlns="http://www.w3.org/2000/svg" xmlns:xlink="http://www.w3.org/1999/xlink" xmlns:sketch="http://www.bohemiancoding.com/sketch/ns" width="7px" height="8px" viewBox="0 0 7 8" version="1.1"><title>platform_macosx</title><description>Created with Sketch (http://www.bohemiancoding.com/sketch)</description><defs/><g id="Page-1" stroke="none" stroke-width="1" fill="none" fill-rule="evenodd" sketch:type="MSPage"><path d="M5.38642053 4.2 C5.37642053 3.2 6.2 2.7 6.2 2.7 C5.77542053 2 5.1 1.9 4.8 1.9 C4.17642053 1.9 3.6 2.3 3.3 2.3 C2.96442053 2.3 2.5 1.9 2 1.9 C1.29742053 1.9 0.7 2.3 0.3 2.9 C-0.366579473 4.1 0.2 5.9 0.8 6.9 C1.16642053 7.4 1.6 7.9 2.1 7.9 C2.58542053 7.9 2.8 7.6 3.4 7.6 C3.98742053 7.6 4.2 7.9 4.7 7.9 C5.22742053 7.9 5.6 7.4 5.9 6.9 C6.28242053 6.4 6.4 5.8 6.4 5.8 C6.43742053 5.8 5.4 5.4 5.4 4.2 M4.38942053 1.3 C4.66542053 0.9 4.9 0.5 4.8 0 C4.40342053 0 3.9 0.3 3.6 0.6 C3.37842053 0.9 3.2 1.4 3.2 1.8 C3.65942053 1.9 4.1 1.6 4.4 1.3" id="platform_macosx" fill="#0B0B0A" sketch:type="MSShapeGroup"/></g></svg>
