<?xml version="1.0" encoding="utf-8"?>
<!-- Generator: Adobe Illustrator 28.0.0, SVG Export Plug-In . SVG Version: 6.00 Build 0)  -->
<svg version="1.1" id="Layer_1" xmlns="http://www.w3.org/2000/svg" xmlns:xlink="http://www.w3.org/1999/xlink" x="0px" y="0px"
	 viewBox="0 0 363.8 106.4" style="enable-background:new 0 0 363.8 106.4;" xml:space="preserve">
<style type="text/css">
	.st0{fill:#4B4E52;}
	.st1{fill:#5CE500;}
</style>
<path class="st0" d="M360.1,29.5c-2,0-3.7-1.6-3.7-3.7c0-2.2,1.7-3.7,3.7-3.7c2,0,3.7,1.6,3.7,3.7C363.8,27.9,362.1,29.5,360.1,29.5
	z M360.1,22.7c-1.7,0-3,1.3-3,3.1c0,1.8,1.3,3.1,3,3.1s3-1.3,3-3.1C363.1,23.9,361.8,22.7,360.1,22.7z M359.7,26.4v1.2h-1.1v-3.9
	h1.8c0.9,0,1.4,0.5,1.4,1.4c0,0.6-0.3,1-0.8,1.2l0.9,1.4h-1.2l-0.8-1.2H359.7z M360.3,24.7h-0.6v0.9h0.6c0.3,0,0.5-0.2,0.5-0.4
	C360.8,24.9,360.6,24.7,360.3,24.7z"/>
<path class="st1" d="M48.3,44c0,0.6-0.4,1.3-0.9,1.6l-12.5,7.2V24.9L10.7,11l12.5-7.2c0.5-0.3,1.3-0.3,1.8,0l23.2,13.4
	C48.3,17.2,48.3,44,48.3,44z M29.5,28L13,18.4c-0.5-0.3-1.3-0.3-1.8,0L0,24.9L17.4,35l0,20.1l11.2-6.4c0.5-0.3,0.9-1,0.9-1.6
	C29.5,47.1,29.5,28,29.5,28z M0,45l12.1,7V38L0,45z"/>
<g>
	<path class="st0" d="M74.8,17.1H61.7v35.6h5.8v-14h7.4c8,0,12.4-3.9,12.4-11C87.2,24.6,86,17.1,74.8,17.1z M81.3,27.9
		c0,4-2.1,5.7-7.2,5.7h-6.6V22.4h7.4C79.2,22.4,81.3,24.2,81.3,27.9z M104.6,26.8L105,27l-1,5.3l-0.7-0.2c-0.6-0.2-1.1-0.3-1.7-0.3
		c-5.4,0-5.9,4.3-5.9,9.6v11.3h-5.4V26.6h5.1v3.2c1.4-2.1,3-3.2,5.2-3.5C102.1,26.1,103.5,26.3,104.6,26.8z M117.9,26.1
		c-4.3,0-7.7,1.6-9.8,4.7c-2.3,3.2-2.6,7-2.6,9c0,8.3,4.9,13.6,12.5,13.6c9.2,0,12.5-7.4,12.5-13.8c0-3.7-1.1-7-3.1-9.4
		C125.1,27.5,121.8,26.1,117.9,26.1L117.9,26.1z M117.9,48.5c-4.2,0-6.9-3.4-6.9-8.8c0-5.5,2.6-8.9,6.9-8.9c4.2,0,6.9,3.4,6.9,8.8
		C124.8,45.1,122.1,48.5,117.9,48.5z M175.8,26.8l0.4,0.2l-1,5.3l-0.7-0.2c-0.6-0.2-1.1-0.3-1.7-0.3c-5.4,0-5.9,4.3-5.9,9.6v11.3
		h-5.4V26.6h5.1v3.2c1.4-2.1,3-3.2,5.2-3.5C173.3,26.1,174.7,26.3,175.8,26.8L175.8,26.8z M195.1,44.4l-0.1,0.3
		c-1.1,3.2-3.8,3.9-5.9,3.9c-4.1,0-6.7-2.7-7-7.1h18.5l0.1-0.5c0.1-0.6,0.1-1.5,0.1-2.1c0-0.2,0-0.3,0-0.5
		c-0.3-7.3-5-12.2-11.9-12.2c-4,0-7.3,1.6-9.5,4.5c-1.8,2.4-2.8,5.7-2.8,9.1c0,8.1,5,13.5,12.5,13.5c5.8,0,9.8-2.9,11.2-8.3l0.2-0.6
		C200.6,44.4,195.1,44.4,195.1,44.4z M182.4,36.7c0.5-3.6,2.9-5.9,6.5-5.9c2.7,0,5.9,1.6,6.3,5.9H182.4z M151.7,28.8
		c-1.7-1.8-4.1-2.7-6.9-2.7c-7.9,0-11.5,7-11.5,13.5c0,6.6,3.6,13.4,11.5,13.4c2.7,0,5-1,6.7-2.7c0,1.2,0,2.2-0.1,2.7
		c-0.3,4.3-2.4,6.3-6.5,6.3c-2.3,0-4.9-0.8-5.4-3.1l-0.1-0.5l-5.3,0l0.1,0.7c0.6,4.6,4.6,7.5,10.6,7.5c5.2,0,8.9-2,10.8-5.7
		c0.9-1.8,1.3-4.4,1.3-7.8V26.6h-5.1V28.8L151.7,28.8z M145.1,48.1c-1.9,0-6.3-0.9-6.3-8.8c0-5.2,2.5-8.4,6.4-8.4
		c3.1,0,6.3,2.2,6.3,8.4C151.6,44.8,149.1,48.1,145.1,48.1z M225.7,44.9c0,4.2-3.5,8.4-11.2,8.4c-6.8,0-10.9-3-11.4-8.3l-0.1-0.6
		h5.3l0.1,0.4c0.7,3.2,3.7,3.9,6.2,3.9c2.7,0,5.6-0.9,5.6-3.3c0-1.2-0.8-2.1-2.4-2.6c-0.9-0.3-2.1-0.6-3.3-0.9
		c-2.1-0.6-4.3-1.2-5.6-1.7c-3.3-1.2-5.2-3.5-5.2-6.3c0-5.3,5.1-7.6,10.2-7.6c6.8,0,10.3,2.6,10.8,7.8l0,0.5l-5.2,0l-0.1-0.4
		c-0.5-3-3.5-3.5-5.3-3.5c-1.5,0-5,0.3-5,2.8c0,1.1,1,2,3,2.6c0.6,0.2,1.5,0.4,2.5,0.7c2.1,0.6,4.8,1.2,6.1,1.7
		C224.1,39.5,225.7,41.7,225.7,44.9L225.7,44.9z M250.7,44.9c0,4.2-3.5,8.4-11.2,8.4c-6.8,0-10.9-3-11.4-8.3l-0.1-0.6h5.3l0.1,0.4
		c0.7,3.2,3.7,3.9,6.2,3.9c2.7,0,5.6-0.9,5.6-3.3c0-1.2-0.8-2.1-2.4-2.6c-0.9-0.3-2.1-0.6-3.3-0.9c-2.1-0.6-4.3-1.2-5.6-1.7
		c-3.3-1.2-5.2-3.5-5.2-6.3c0-5.3,5.1-7.6,10.2-7.6c6.8,0,10.3,2.6,10.8,7.8l0,0.5l-5.2,0l-0.1-0.4c-0.5-3-3.5-3.5-5.3-3.5
		c-1.5,0-5,0.3-5,2.8c0,1.1,1,2,3,2.6c0.6,0.2,1.5,0.4,2.5,0.7c2.1,0.6,4.8,1.2,6.1,1.7C249,39.5,250.7,41.7,250.7,44.9L250.7,44.9z
		"/>
	<path class="st0" d="M255,29.4c-2,0-3.7-1.6-3.7-3.7c0-2.2,1.7-3.7,3.7-3.7c2,0,3.7,1.6,3.7,3.7C258.7,27.8,257,29.4,255,29.4
		L255,29.4z M255,22.6c-1.7,0-3,1.3-3,3.1s1.3,3.1,3,3.1c1.7,0,3-1.3,3-3.1S256.6,22.6,255,22.6z M254.5,26.4v1.2h-1.1v-3.9h1.8
		c0.9,0,1.4,0.5,1.4,1.4c0,0.6-0.3,1-0.8,1.2l0.9,1.4h-1.2l-0.8-1.2L254.5,26.4L254.5,26.4z M255.2,24.6h-0.6v0.9h0.6
		c0.3,0,0.5-0.2,0.5-0.4C255.7,24.8,255.5,24.6,255.2,24.6z"/>
</g>
<g>
	<path class="st0" d="M279.3,17.2c4.2,0,7.2,1.1,9.6,3v3.2c-2.9-2.5-5.9-3.5-9.5-3.5c-7.5,0-12.9,5.8-12.9,15.3s5.5,15.3,12.9,15.3
		c3.6,0,6.6-1,9.5-3.5v3.2c-2.3,1.9-5.4,3-9.6,3c-8.8,0-15.8-6.9-15.8-18S270.5,17.2,279.3,17.2L279.3,17.2z"/>
	<path class="st0" d="M292.7,15.7h2.9v15.8c1.5-2.4,4.5-4.6,8.1-4.6c5.8,0,8.8,3.7,8.8,9.1v16.8h-2.8V36.4c0-3.9-2-6.8-6.5-6.8
		c-3.5,0-6.3,2.5-7.6,5.5v17.7h-2.9V15.7z"/>
	<path class="st0" d="M328.6,50.8c2.9,0,5-0.7,7.1-2.5V51c-1.9,1.5-4.4,2.2-7.4,2.2c-7.1,0-11.8-5-11.8-12.9
		c0-7.8,4.2-13.4,10.9-13.4c6.6,0,10,5,10,12.4v1h-18.2C319.4,47.2,323.4,50.8,328.6,50.8L328.6,50.8z M319.5,38h15.3
		c-0.2-4.4-2.3-8.6-7.3-8.6C323.4,29.4,320.2,32.5,319.5,38z"/>
	<path class="st0" d="M352.7,18.3c-0.7-0.4-1.6-0.6-2.6-0.6c-2.7,0-4.6,1.9-4.6,5.5v4.3h5.9v2.5h-5.9v22.9h-2.8V29.9h-4.1v-2.5h4.1
		v-4.6c0-4.6,3-7.7,7.1-7.7c1.1,0,2,0.2,2.9,0.5C352.7,15.7,352.7,18.3,352.7,18.3z"/>
</g>
<g>
	<path class="st0" d="M105.2,98.9v-4.3c2.3,1.9,4.9,2.8,7.8,2.8c1.5,0,2.6-0.3,3.5-0.8c0.9-0.5,1.3-1.3,1.3-2.4
		c0-0.9-0.3-1.6-0.8-2.1c-0.5-0.5-1.4-1-2.6-1.4l-3.5-1.3c-0.9-0.3-1.6-0.7-2.3-1c-0.6-0.4-1.2-0.8-1.8-1.4c-0.6-0.5-1-1.2-1.2-2
		c-0.3-0.8-0.4-1.6-0.4-2.6c0-1.4,0.4-2.6,1.1-3.6c0.8-1,1.8-1.8,3-2.3c1.2-0.5,2.6-0.7,4.1-0.7c2.8,0,5.2,0.7,7.2,2V82
		c-2.3-1.8-4.7-2.6-7.1-2.6c-1.3,0-2.3,0.3-3.1,0.8c-0.8,0.5-1.2,1.2-1.2,2.2c0,0.8,0.3,1.5,0.8,1.9c0.5,0.5,1.3,0.9,2.4,1.3
		l3.9,1.4c1.9,0.7,3.3,1.6,4.2,2.7c0.9,1.1,1.3,2.6,1.3,4.3c0,2.2-0.8,3.9-2.5,5.1c-1.6,1.2-3.7,1.8-6.3,1.8c-1.6,0-3-0.2-4.4-0.6
		C107.3,100,106.1,99.5,105.2,98.9z"/>
	<path class="st0" d="M135.3,101c-3,0-5.4-0.9-7.1-2.6c-1.8-1.7-2.7-4.3-2.7-7.5V76.2h4.1v14.2c0,4.6,1.9,6.9,5.7,6.9
		c3.8,0,5.6-2.3,5.6-6.9V76.2h4.1v14.7c0,3.3-0.9,5.8-2.6,7.5C140.7,100.1,138.3,101,135.3,101z"/>
	<path class="st0" d="M159.6,91.5h-5.3v9.1h-4.1V76.2h9.4c2.6,0,4.6,0.7,6.1,2c1.5,1.3,2.2,3.2,2.2,5.7c0,2.4-0.7,4.3-2.2,5.7
		S162.2,91.5,159.6,91.5z M163.8,83.9c0-1.2-0.4-2.2-1.1-3c-0.7-0.7-1.8-1.1-3.2-1.1h-5.2v8.2h5.2c1.4,0,2.5-0.4,3.2-1.1
		C163.5,86.1,163.8,85.1,163.8,83.9z"/>
	<path class="st0" d="M171.8,76.2h16v3.7h-11.9v6.5h10.8v3.6h-10.8v7h11.9v3.7h-16V76.2z"/>
	<path class="st0" d="M199.4,90.7h-3v9.9h-4.1V76.2h9.4c2.6,0,4.6,0.6,6.1,1.9c1.5,1.3,2.2,3.1,2.2,5.4c0,2-0.5,3.6-1.6,4.8
		c-1.1,1.2-2.6,1.9-4.6,2.3l7.1,10.1h-4.7L199.4,90.7z M196.4,79.8v7.5h5.2c1.3,0,2.4-0.3,3.2-1s1.1-1.6,1.1-2.7s-0.4-2.1-1.1-2.7
		c-0.8-0.7-1.8-1-3.2-1H196.4z"/>
	<path class="st0" d="M226.2,95.4H226l-7.6-11.9v17.1h-4.1V76.2h3.9l7.9,12.7l7.9-12.7h3.7v24.4h-4V83.5L226.2,95.4z"/>
	<path class="st0" d="M250.6,76.2h4l9.4,24.4h-4.2l-2.5-6.8h-9.3l-2.5,6.8h-4.2L250.6,76.2z M252.6,81.2l-3.3,9h6.7L252.6,81.2z"/>
	<path class="st0" d="M274.6,90.7h-3v9.9h-4.1V76.2h9.4c2.6,0,4.6,0.6,6.1,1.9c1.5,1.3,2.2,3.1,2.2,5.4c0,2-0.5,3.6-1.6,4.8
		c-1.1,1.2-2.6,1.9-4.6,2.3l7.1,10.1h-4.7L274.6,90.7z M271.6,79.8v7.5h5.2c1.3,0,2.4-0.3,3.2-1c0.8-0.7,1.1-1.6,1.1-2.7
		s-0.4-2.1-1.1-2.7c-0.8-0.7-1.8-1-3.2-1H271.6z"/>
	<path class="st0" d="M293.7,76.2v10.6l9.8-10.6h5.1l-11,11.7l11.4,12.7h-5.3l-10-11.2v11.2h-4.1V76.2H293.7z"/>
	<path class="st0" d="M312.3,76.2h16v3.7h-11.9v6.5h10.8v3.6h-10.8v7h11.9v3.7h-16V76.2z"/>
	<path class="st0" d="M331.2,79.8v-3.7h20.4v3.7h-8.1v20.8h-4.1V79.8H331.2z"/>
</g>
</svg>
