<?xml version="1.0" encoding="utf-8"?>
<!-- Generator: Adobe Illustrator 16.0.0, SVG Export Plug-In . SVG Version: 6.00 Build 0)  -->
<!DOCTYPE svg PUBLIC "-//W3C//DTD SVG 1.1//EN" "http://www.w3.org/Graphics/SVG/1.1/DTD/svg11.dtd">
<svg version="1.1" id="Layer_1" xmlns="http://www.w3.org/2000/svg" xmlns:xlink="http://www.w3.org/1999/xlink" x="0px" y="0px"
	 width="384.178px" height="94.457px" viewBox="0 0 384.178 94.457" enable-background="new 0 0 384.178 94.457"
	 xml:space="preserve">
<g>
	<g>
		<path fill="#FFFFFF" d="M106.717,35.634v-0.166c0-16.611,12.521-30.217,30.467-30.217c11.019,0,17.612,3.673,23.039,9.015
			l-8.181,9.432c-4.507-4.09-9.098-6.594-14.941-6.594c-9.85,0-16.944,8.18-16.944,18.196v0.167
			c0,10.016,6.928,18.363,16.944,18.363c6.678,0,10.768-2.671,15.358-6.845l8.18,8.264c-6.009,6.427-12.688,10.433-23.956,10.433
			C119.489,65.684,106.717,52.413,106.717,35.634z"/>
		<path fill="#FFFFFF" d="M170.907,6.253h12.854v23.122h23.706V6.253h12.854v58.43h-12.854V41.227h-23.706v23.456h-12.854V6.253z"/>
		<path fill="#FFFFFF" d="M236.016,6.253h44.073v11.436h-31.301v11.853h27.545v11.435h-27.545v12.271h31.719v11.436h-44.491V6.253z"
			/>
		<path fill="#FFFFFF" d="M293.612,6.253h44.49v11.686h-31.635v12.438h27.88v11.686h-27.88v22.621h-12.855V6.253z"/>
	</g>
</g>
<path fill="#FFFFFF" d="M46.808,67.889c-11.625,0-21.082-9.458-21.082-21.083c0-11.625,9.458-21.082,21.082-21.082
	c9.595,0,17.707,6.445,20.25,15.231h8.158c-2.714-13.196-14.42-23.15-28.408-23.15c-15.991,0-29,13.009-29,29
	s13.009,29.001,29,29.001c13.988,0,25.694-9.954,28.408-23.15h-8.158C64.515,61.443,56.402,67.889,46.808,67.889z"/>
<path fill="#FFFFFF" d="M32.597,61.017c3.641,3.641,8.667,5.896,14.211,5.896v-8.405c-3.231,0-6.157-1.31-8.274-3.427L32.597,61.017
	z"/>
<path fill="#F38B00" d="M26.701,46.806c0,2.878,0.612,5.614,1.706,8.092l7.689-3.381c-0.635-1.441-0.99-3.034-0.99-4.71
	c0-6.463,5.239-11.702,11.701-11.702v-8.405C35.721,26.699,26.701,35.719,26.701,46.806z"/>
<path fill="#FFFFFF" d="M54.099,28.069l-3.049,7.836c2.489,0.97,4.567,2.763,5.891,5.051h9.104
	C64.246,35.054,59.801,30.296,54.099,28.069z"/>
<path fill="#F38B00" d="M51.05,57.708l3.049,7.836c5.702-2.228,10.146-6.985,11.945-12.887H56.94
	C55.616,54.944,53.539,56.737,51.05,57.708z"/>
<path fill="#FFFFFF" d="M9.609,58.054c-0.134-0.44-0.26-0.884-0.378-1.33c-0.007-0.027-0.014-0.054-0.021-0.082
	C9.101,56.23,9,55.815,8.904,55.398c-0.019-0.084-0.037-0.17-0.055-0.255c-0.079-0.359-0.154-0.718-0.224-1.08
	c-0.03-0.16-0.058-0.322-0.086-0.483c-0.051-0.289-0.102-0.577-0.146-0.867c-0.038-0.247-0.071-0.496-0.104-0.745
	c-0.228-1.695-0.352-3.417-0.35-5.163H0c-0.002,1.903,0.117,3.783,0.341,5.635H0.34c0.005,0.041,0.012,0.081,0.017,0.122
	c0.062,0.505,0.131,1.008,0.21,1.509c0.021,0.138,0.046,0.274,0.069,0.412c0.068,0.412,0.139,0.822,0.218,1.23
	c0.042,0.217,0.089,0.433,0.134,0.648c0.068,0.325,0.136,0.65,0.21,0.973c0.065,0.285,0.137,0.566,0.208,0.849
	C1.47,58.437,1.532,58.69,1.6,58.941c0.09,0.334,0.186,0.666,0.283,0.997C1.923,60.077,1.958,60.217,2,60.354l0.005-0.001
	c0.548,1.814,1.197,3.584,1.952,5.297l7.276-3.2C10.605,61.028,10.065,59.559,9.609,58.054L9.609,58.054z"/>
<path fill="#F38B00" d="M46.808,85.675c-10.716,0-20.43-4.363-27.467-11.402l-5.625,5.625c8.47,8.471,20.167,13.715,33.092,13.715
	c23.869,0,43.564-17.867,46.443-40.956h-8.014C82.406,71.324,66.252,85.675,46.808,85.675z"/>
<path fill="#F38B00" d="M46.808,7.938c8.706,0,16.75,2.878,23.235,7.732L74.8,9.293C66.993,3.458,57.305,0,46.808,0
	C26.946,0,9.976,12.372,3.179,29.83l7.407,2.882C16.241,18.227,30.344,7.938,46.808,7.938z"/>
<path fill="#FFFFFF" d="M85.236,40.956h8.014c-0.859-6.888-3.215-13.311-6.732-18.934l-6.748,4.211
	C82.526,30.631,84.427,35.616,85.236,40.956z"/>
<path fill="#F38B00" d="M76.208,40.956h8.041c-2.098-13.482-11.332-24.629-23.703-29.459l-2.873,7.384
	C67.083,22.553,74.2,30.842,76.208,40.956z"/>
<path fill="#FFFFFF" d="M46.808,16.831L46.808,16.831l0.001-7.918c0,0,0,0-0.001,0c-16.05,0-29.799,10.031-35.312,24.153
	l7.378,2.871C23.235,24.766,34.111,16.831,46.808,16.831z"/>
<path fill="#F38B00" d="M16.832,46.806L16.832,46.806l-7.918,0v0c0,15.924,9.876,29.578,23.822,35.176l2.94-7.35
	C24.644,70.204,16.832,59.403,16.832,46.806z"/>
<path fill="#FFFFFF" d="M46.808,76.782V84.7c18.906,0,34.621-13.916,37.442-32.042h-8.041
	C73.479,66.395,61.335,76.782,46.808,76.782z"/>
<g>
	<path fill="#F18A21" d="M123.037,83.201c3.995,0.972,6.074,2.402,6.074,5.561c0,3.562-2.78,5.668-6.749,5.668
		c-2.888,0-5.614-0.998-7.882-3.022l1.998-2.376c1.809,1.565,3.617,2.457,5.965,2.457c2.051,0,3.347-0.945,3.347-2.402
		c0-1.377-0.756-2.105-4.265-2.916c-4.022-0.972-6.29-2.159-6.29-5.668c0-3.293,2.699-5.507,6.451-5.507
		c2.753,0,4.94,0.837,6.856,2.376l-1.782,2.51c-1.701-1.269-3.401-1.943-5.128-1.943c-1.944,0-3.077,0.999-3.077,2.268
		C118.556,81.689,119.42,82.336,123.037,83.201z"/>
	<path fill="#F18A21" d="M154.813,85.981c0,5.642-3.186,8.476-8.125,8.476c-4.913,0-8.044-2.834-8.044-8.313V75.265h3.32v10.743
		c0,3.509,1.809,5.398,4.778,5.398c2.942,0,4.75-1.782,4.75-5.264V75.265h3.32V85.981z"/>
	<path fill="#F18A21" d="M172.365,88.086h-3.752v6.073h-3.32V75.265h7.45c4.4,0,7.18,2.483,7.18,6.343
		C179.923,85.873,176.522,88.086,172.365,88.086z M172.473,78.288h-3.86v6.803h3.86c2.51,0,4.076-1.377,4.076-3.401
		C176.549,79.449,174.957,78.288,172.473,78.288z"/>
	<path fill="#F18A21" d="M203.251,78.234h-10.689v4.913h9.475v2.969h-9.475v5.075h10.824v2.969h-14.145V75.265h14.009V78.234z"/>
	<path fill="#F18A21" d="M225.365,94.16l-4.643-6.586h-4.157v6.586h-3.32V75.265h8.422c4.346,0,7.019,2.294,7.019,5.992
		c0,3.131-1.863,5.021-4.508,5.749l5.102,7.153H225.365z M221.397,78.288h-4.832v6.344h4.859c2.375,0,3.887-1.242,3.887-3.186
		C225.312,79.368,223.854,78.288,221.397,78.288z"/>
	<path fill="#F18A21" d="M247.965,89.517h-0.108l-5.911-8.854V94.16h-3.266V75.265h3.536l5.749,8.935l5.749-8.935h3.536V94.16
		h-3.319V80.609L247.965,89.517z"/>
	<path fill="#F18A21" d="M286.113,94.16h-3.509l-1.917-4.562h-8.935l-1.943,4.562h-3.401l8.314-19.03h3.077L286.113,94.16z
		 M276.207,79.098l-3.239,7.558h6.505L276.207,79.098z"/>
	<path fill="#F18A21" d="M307.391,94.16l-4.643-6.586h-4.157v6.586h-3.319V75.265h8.422c4.346,0,7.018,2.294,7.018,5.992
		c0,3.131-1.862,5.021-4.508,5.749l5.102,7.153H307.391z M303.423,78.288h-4.832v6.344h4.859c2.375,0,3.887-1.242,3.887-3.186
		C307.337,79.368,305.879,78.288,303.423,78.288z"/>
	<path fill="#F18A21" d="M337.44,94.16h-4.022l-6.451-8.503l-2.942,3.023v5.479h-3.319V75.265h3.319v9.501l8.989-9.501h4.076
		l-7.855,8.124L337.44,94.16z"/>
	<path fill="#F18A21" d="M360.201,78.234h-10.689v4.913h9.475v2.969h-9.475v5.075h10.824v2.969h-14.144V75.265h14.009V78.234z"/>
	<path fill="#F18A21" d="M378.185,94.16h-3.347V78.342h-5.992v-3.077h15.332v3.077h-5.993V94.16z"/>
</g>
</svg>
