<?xml version="1.0" encoding="UTF-8" standalone="no"?>
<svg width="147px" height="37px" viewBox="0 0 147 37" version="1.1" xmlns="http://www.w3.org/2000/svg" xmlns:xlink="http://www.w3.org/1999/xlink" xmlns:sketch="http://www.bohemiancoding.com/sketch/ns">
    <title>logo-supermarket</title>
    <description>Created with Sketch (http://www.bohemiancoding.com/sketch)</description>
    <defs></defs>
    <g id="Page-1" stroke="none" stroke-width="1" fill="none" fill-rule="evenodd" sketch:type="MSPage">
        <g id="Cookbooks" sketch:type="MSArtboardGroup" transform="translate(-70.000000, -17.000000)">
            <g id="-:-nav-bar" sketch:type="MSLayerGroup">
                <g id="logo-supermarket" transform="translate(70.000000, 17.000000)" sketch:type="MSShapeGroup">
                    <g id="Group" transform="translate(40.682292, 1.914894)" fill="#FFFFFF">
                        <path d="M-0.107598958,11.7321702 L-0.107598958,11.6685957 C-0.107598958,5.30693617 4.65298958,0.0961276596 11.4762083,0.0961276596 C15.6661042,0.0961276596 18.1724375,1.50280851 20.2358281,3.54868085 L17.1253437,7.16093617 C15.4117448,5.59455319 13.6658281,4.63557447 11.444651,4.63557447 C7.69959896,4.63557447 5.00278125,7.76834043 5.00278125,11.6042553 L5.00278125,11.6682128 C5.00278125,15.5041277 7.63686458,18.7008511 11.444651,18.7008511 C13.9836823,18.7008511 15.5391146,17.6779149 17.2838906,16.0793617 L20.3939948,19.2442979 C18.1093229,21.7057021 15.5699115,23.2399149 11.285724,23.2399149 C4.74842188,23.2406809 -0.107598958,18.1581702 -0.107598958,11.7321702 L-0.107598958,11.7321702 Z" id="Shape"></path>
                        <path d="M24.297974,0.47987234 L29.1851719,0.47987234 L29.1851719,9.33510638 L38.1983906,9.33510638 L38.1983906,0.47987234 L43.0855885,0.47987234 L43.0855885,22.8577021 L38.1983906,22.8577021 L38.1983906,13.8741702 L29.1851719,13.8741702 L29.1851719,22.8577021 L24.297974,22.8577021 L24.297974,0.47987234 L24.297974,0.47987234 Z" id="Shape"></path>
                        <path d="M49.0529583,0.47987234 L65.8098802,0.47987234 L65.8098802,4.85961702 L53.9089792,4.85961702 L53.9089792,9.39906383 L64.3818177,9.39906383 L64.3818177,13.7784255 L53.9089792,13.7784255 L53.9089792,18.4779574 L65.9688073,18.4779574 L65.9688073,22.8577021 L49.0529583,22.8577021 L49.0529583,0.47987234 L49.0529583,0.47987234 L49.0529583,0.47987234 Z" id="Shape"></path>
                        <path d="M70.9514375,0.47987234 L87.8669063,0.47987234 L87.8669063,4.9553617 L75.8390156,4.9553617 L75.8390156,9.71885106 L86.439224,9.71885106 L86.439224,14.1943404 L75.8390156,14.1943404 L75.8390156,22.8577021 L70.9514375,22.8577021 L70.9514375,0.47987234 L70.9514375,0.47987234 Z" id="Shape"></path>
                    </g>
                    <path d="M17.7967917,26.0000426 C13.3768698,26.0000426 9.78123958,22.3782128 9.78123958,17.9257021 C9.78123958,13.4735745 13.37725,9.85174468 17.7967917,9.85174468 C21.4448906,9.85174468 24.5291406,12.3200426 25.4960104,15.6848936 L28.59775,15.6848936 C27.5658646,10.6311064 23.1151458,6.81893617 17.7967917,6.81893617 C11.7168802,6.81893617 6.77075,11.8011064 6.77075,17.9253191 C6.77075,24.0495319 11.7168802,29.0320851 17.7967917,29.0320851 C23.1151458,29.0320851 27.5658646,25.2195319 28.59775,20.1661277 L25.4960104,20.1661277 C24.5291406,23.5313617 21.4445104,26.0000426 17.7967917,26.0000426 L17.7967917,26.0000426 Z" id="Shape" fill="#FFFFFF"></path>
                    <path d="M12.393651,23.3685957 C13.7779896,24.7630213 15.6889167,25.6266383 17.7967917,25.6266383 L17.7967917,22.4077021 C16.5687188,22.4077021 15.455849,21.906 14.6513281,21.095234 L12.393651,23.3685957 L12.393651,23.3685957 Z" id="Shape" fill="#FFFFFF"></path>
                    <path d="M10.1519427,17.9257021 C10.1519427,19.0275319 10.38425,20.0757447 10.8005781,21.024766 L13.7236198,19.7299149 C13.4821875,19.1780426 13.3472135,18.5675745 13.3472135,17.9260851 C13.3472135,15.4508936 15.339125,13.4444681 17.7960312,13.4444681 L17.7960312,10.2255319 C13.5814219,10.2251489 10.1519427,13.679617 10.1519427,17.9257021 L10.1519427,17.9257021 Z" id="Shape" fill="#F38B00"></path>
                    <path d="M20.5688906,10.7498298 L19.4096354,13.7508511 C20.355974,14.1223404 21.1460469,14.8090213 21.6494427,15.6852766 L25.1108594,15.6852766 C24.4268646,13.4249362 22.7368385,11.6027234 20.5688906,10.7498298 L20.5688906,10.7498298 Z" id="Shape" fill="#FFFFFF"></path>
                    <path d="M19.4096354,22.1009362 L20.5688906,25.1019574 C22.7368385,24.2486809 24.4264844,22.4268511 25.1104792,20.1665106 L21.6490625,20.1665106 C21.1456667,21.042 20.355974,21.7286809 19.4096354,22.1009362 L19.4096354,22.1009362 Z" id="Shape" fill="#F38B00"></path>
                    <path d="M3.65342187,22.2338298 C3.60247396,22.0653191 3.55456771,21.8948936 3.50970312,21.7244681 C3.50704167,21.7141277 3.50438021,21.7034043 3.50171875,21.6930638 C3.46027604,21.5348936 3.421875,21.3755745 3.385375,21.2162553 C3.37815104,21.1840851 3.3716875,21.1511489 3.36446354,21.1182128 C3.33442708,20.9811064 3.30591146,20.843234 3.27929687,20.7045957 C3.26789062,20.6433191 3.25686458,20.5816596 3.24659896,20.52 C3.22682812,20.4093191 3.2074375,20.2990213 3.19108854,20.1879574 C3.17664062,20.0933617 3.16409375,19.998 3.15154687,19.9026383 C3.06447917,19.2538723 3.01733333,18.594 3.01809375,17.9253191 L-1.65645763e-17,17.9253191 C-0.000760416667,18.6541277 0.044484375,19.3741277 0.129651042,20.0830213 L0.129270833,20.0830213 C0.131171875,20.0987234 0.133833333,20.1144255 0.135734375,20.1301277 C0.159307292,20.3231489 0.185541667,20.5161702 0.215578125,20.7076596 C0.2235625,20.7608936 0.233067708,20.8125957 0.2418125,20.8654468 C0.267666667,21.023234 0.294661458,21.1802553 0.324697917,21.3365106 C0.340666667,21.419617 0.358536458,21.5027234 0.375645833,21.5846809 C0.4015,21.708766 0.427734375,21.833234 0.455869792,21.9573191 C0.480203125,22.0664681 0.507958333,22.1740851 0.534572917,22.2828511 C0.55890625,22.3801277 0.582859375,22.4766383 0.608333333,22.5731489 C0.642552083,22.7010638 0.679432292,22.8282128 0.715932292,22.9545957 C0.731140625,23.0082128 0.744447917,23.0614468 0.760416667,23.1139149 L0.762317708,23.1139149 C0.970671875,23.8082553 1.21742708,24.4865106 1.50448437,25.1425532 L4.2705,23.9170213 C4.03210937,23.3720426 3.82679687,22.8098298 3.65342187,22.2338298 L3.65342187,22.2338298 L3.65342187,22.2338298 Z" id="Shape" fill="#FFFFFF"></path>
                    <path d="M17.7967917,32.8117021 C13.7224792,32.8117021 10.0291354,31.1411489 7.35360937,28.4453617 L5.2149375,30.599617 C8.43530208,33.8438298 12.882599,35.8521702 17.7967917,35.8521702 C26.8719844,35.8521702 34.3601875,29.0094894 35.4548073,20.1668936 L32.4074375,20.1668936 C31.3314479,27.3155745 25.1895625,32.8117021 17.7967917,32.8117021 L17.7967917,32.8117021 Z" id="Shape" fill="#F38B00"></path>
                    <path d="M17.7967917,3.04008511 C21.1068854,3.04008511 24.1652812,4.14229787 26.6309323,6.0012766 L28.4395833,3.55902128 C25.4712969,1.32434043 21.7878385,0 17.7967917,0 C10.2450938,0 3.79295833,4.73821277 1.20868229,11.4242553 L4.02488542,12.528 C6.17496354,6.98055319 11.5370417,3.04008511 17.7967917,3.04008511 L17.7967917,3.04008511 Z" id="Shape" fill="#F38B00"></path>
                    <path d="M32.4074375,15.6852766 L35.4548073,15.6852766 C35.1282083,13.0473191 34.2324375,10.5874468 32.8952448,8.43395745 L30.329599,10.0466809 C31.3770729,11.7310213 32.099849,13.6401702 32.4074375,15.6852766 L32.4074375,15.6852766 Z" id="Shape" fill="#FFFFFF"></path>
                    <path d="M28.9749167,15.6852766 L32.0321719,15.6852766 C31.2341146,10.5219574 27.723651,6.25289362 23.0200937,4.40310638 L21.9277552,7.23102128 C25.5055156,8.63731915 28.2114583,11.8118298 28.9749167,15.6852766 L28.9749167,15.6852766 Z" id="Shape" fill="#F38B00"></path>
                    <path d="M17.7967917,6.44591489 L17.7967917,6.44591489 L17.7971719,3.41348936 C17.7971719,3.41348936 17.7971719,3.41348936 17.7967917,3.41348936 C11.6944479,3.41348936 6.46696354,7.25514894 4.370875,12.6635745 L7.17605208,13.7631064 C8.83414062,9.48485106 12.9692865,6.44591489 17.7967917,6.44591489 L17.7967917,6.44591489 Z" id="Shape" fill="#FFFFFF"></path>
                    <path d="M6.39966667,17.9257021 L6.39966667,17.9257021 L3.38917708,17.9257021 C3.38917708,24.0242553 7.14411458,29.2534468 12.4461198,31.3973617 L13.5639323,28.5820851 C9.36985417,26.8866383 6.39966667,22.7497021 6.39966667,17.9257021 L6.39966667,17.9257021 Z" id="Shape" fill="#F38B00"></path>
                    <path d="M17.7967917,29.4058723 L17.7967917,32.4382979 C24.9850104,32.4382979 30.9599844,27.108766 32.0325521,20.1668936 L28.9752969,20.1668936 C27.9373281,25.4278723 23.3200781,29.4058723 17.7967917,29.4058723 L17.7967917,29.4058723 Z" id="Shape" fill="#FFFFFF"></path>
                    <g id="Group" transform="translate(43.343750, 28.723404)" fill="#F18A21">
                        <path d="M3.43594271,3.14080851 C4.954875,3.51306383 5.74494792,4.0607234 5.74494792,5.27055319 C5.74494792,6.6347234 4.68834896,7.4412766 3.17892188,7.4412766 C2.08088021,7.4412766 1.0448125,7.05906383 0.182119792,6.28429787 L0.941776042,5.37434043 C1.62995313,5.97370213 2.31698958,6.31531915 3.20971875,6.31531915 C3.98990625,6.31531915 4.48265625,5.95340426 4.48265625,5.39540426 C4.48265625,4.86804255 4.19521875,4.58961702 2.8606875,4.2786383 C1.33186979,3.90638298 0.469177083,3.45178723 0.469177083,2.10791489 C0.469177083,0.846765957 1.49535938,-0.00114893617 2.92190104,-0.00114893617 C3.96861458,-0.00114893617 4.80013021,0.319404255 5.52860937,0.908808511 L4.85107813,1.87008511 C4.20434375,1.38408511 3.55798958,1.12634043 2.90136979,1.12634043 C2.16224479,1.12634043 1.73146875,1.50855319 1.73146875,1.99493617 C1.73222917,2.56174468 2.06072917,2.80953191 3.43594271,3.14080851 L3.43594271,3.14080851 Z" id="Shape"></path>
                        <path d="M15.5174427,4.20510638 C15.5174427,6.36625532 14.306099,7.45161702 12.42825,7.45161702 C10.5602865,7.45161702 9.36985417,6.36625532 9.36985417,4.26829787 L9.36985417,0.10187234 L10.6321458,0.10187234 L10.6321458,4.21582979 C10.6321458,5.56008511 11.3199427,6.28314894 12.4487812,6.28314894 C13.566974,6.28314894 14.2547708,5.60068085 14.2547708,4.26714894 L14.2547708,0.10187234 L15.5166823,0.10187234 L15.5174427,4.20510638 L15.5174427,4.20510638 Z" id="Shape"></path>
                        <path d="M22.1908594,5.01165957 L20.7639375,5.01165957 L20.7639375,7.33748936 L19.502026,7.33748936 L19.502026,0.10187234 L22.3345781,0.10187234 C24.0071146,0.10187234 25.064474,1.05242553 25.064474,2.5307234 C25.064474,4.16412766 23.7713854,5.01165957 22.1908594,5.01165957 L22.1908594,5.01165957 Z M22.2319219,1.25923404 L20.7643177,1.25923404 L20.7643177,3.8646383 L22.2319219,3.8646383 C23.1862448,3.8646383 23.781651,3.3372766 23.781651,2.56212766 C23.781651,1.70387234 23.1763594,1.25923404 22.2319219,1.25923404 L22.2319219,1.25923404 Z" id="Shape"></path>
                        <path d="M33.933974,1.23855319 L29.8699271,1.23855319 L29.8699271,3.11974468 L33.4727813,3.11974468 L33.4727813,4.25719149 L29.8699271,4.25719149 L29.8699271,6.20080851 L33.9853021,6.20080851 L33.9853021,7.33787234 L28.6072552,7.33787234 L28.6072552,0.10187234 L33.9335938,0.10187234 L33.933974,1.23855319 L33.933974,1.23855319 Z" id="Shape"></path>
                        <path d="M42.341901,7.33787234 L40.5762135,4.81557447 L38.9956875,4.81557447 L38.9956875,7.33787234 L37.733776,7.33787234 L37.733776,0.10187234 L40.9358906,0.10187234 C42.588276,0.10187234 43.6045729,0.980042553 43.6045729,2.39629787 C43.6045729,3.59578723 42.896625,4.31923404 41.8905938,4.59804255 L43.8304167,7.33748936 L42.341901,7.33787234 L42.341901,7.33787234 Z M40.8332344,1.25923404 L38.9960677,1.25923404 L38.9960677,3.68885106 L40.8435,3.68885106 C41.7464948,3.68885106 42.3213698,3.21357447 42.3213698,2.46829787 C42.32175,1.67285106 41.7674063,1.25923404 40.8332344,1.25923404 L40.8332344,1.25923404 Z" id="Shape"></path>
                        <path d="M50.9346094,5.56008511 L50.8935469,5.56008511 L48.6461354,2.16919149 L48.6461354,7.33787234 L47.404375,7.33787234 L47.404375,0.10187234 L48.7487917,0.10187234 L50.9346094,3.52378723 L53.1204271,0.10187234 L54.4648438,0.10187234 L54.4648438,7.33787234 L53.2029323,7.33787234 L53.2029323,2.14812766 L50.9346094,5.56008511 L50.9346094,5.56008511 Z" id="Shape"></path>
                        <path d="M65.4387969,7.33787234 L64.1046458,7.33787234 L63.3757865,5.5907234 L59.978625,5.5907234 L59.2398802,7.33787234 L57.9471719,7.33787234 L61.1078438,0.049787234 L62.2777448,0.049787234 L65.4387969,7.33787234 L65.4387969,7.33787234 Z M61.6724531,1.56944681 L60.4409583,4.46438298 L62.9142135,4.46438298 L61.6724531,1.56944681 L61.6724531,1.56944681 Z" id="Shape"></path>
                        <path d="M73.5288698,7.33787234 L71.7635625,4.81557447 L70.1830365,4.81557447 L70.1830365,7.33787234 L68.921125,7.33787234 L68.921125,0.10187234 L72.1232396,0.10187234 C73.7760052,0.10187234 74.7919219,0.980042553 74.7919219,2.39629787 C74.7919219,3.59578723 74.083974,4.31923404 73.0779427,4.59804255 L75.0177656,7.33748936 L73.5288698,7.33787234 L73.5288698,7.33787234 Z M72.0202031,1.25923404 L70.1830365,1.25923404 L70.1830365,3.68885106 L72.0304687,3.68885106 C72.9334635,3.68885106 73.5083385,3.21357447 73.5083385,2.46829787 C73.5083385,1.67285106 72.9539948,1.25923404 72.0202031,1.25923404 L72.0202031,1.25923404 Z" id="Shape"></path>
                        <path d="M84.95375,7.33787234 L83.4249323,7.33787234 L80.9722083,4.08140426 L79.8536354,5.23876596 L79.8536354,7.33710638 L78.5921042,7.33710638 L78.5921042,0.10187234 L79.8536354,0.10187234 L79.8536354,3.74017021 L83.2713281,0.10187234 L84.8210573,0.10187234 L81.8345208,3.21280851 L84.95375,7.33787234 L84.95375,7.33787234 Z" id="Shape"></path>
                        <path d="M93.6076719,1.23855319 L89.543625,1.23855319 L89.543625,3.11974468 L93.146099,3.11974468 L93.146099,4.25719149 L89.543625,4.25719149 L89.543625,6.20080851 L93.659,6.20080851 L93.659,7.33787234 L88.2809531,7.33787234 L88.2809531,0.10187234 L93.6076719,0.10187234 L93.6076719,1.23855319 L93.6076719,1.23855319 Z" id="Shape"></path>
                        <path d="M100.445339,7.33787234 L99.1727813,7.33787234 L99.1727813,1.27991489 L96.8945729,1.27991489 L96.8945729,0.10187234 L102.723927,0.10187234 L102.723927,1.27991489 L100.445339,1.27991489 L100.445339,7.33787234 L100.445339,7.33787234 Z" id="Shape"></path>
                    </g>
                </g>
            </g>
        </g>
    </g>
</svg>