<svg xmlns="http://www.w3.org/2000/svg" xmlns:xlink="http://www.w3.org/1999/xlink" xmlns:sketch="http://www.bohemiancoding.com/sketch/ns" width="147px" height="37px" viewBox="0 0 147 37" version="1.1"><title>logo-supermarket</title><description>Created with Sketch (http://www.bohemiancoding.com/sketch)</description><defs/><g id="Page-1" stroke="none" stroke-width="1" fill="none" fill-rule="evenodd" sketch:type="MSPage"><g id="Cookbooks" sketch:type="MSArtboardGroup" transform="translate(-70.000000, -17.000000)"><g id="-:-nav-bar" sketch:type="MSLayerGroup"><g id="logo-supermarket" transform="translate(70.000000, 17.000000)" sketch:type="MSShapeGroup"><g id="Group" fill="#FFFFFF"><path d="M40.6 13.6 L40.6 13.6 C40.6 7.2 45.4 2 52.2 2 C56.3 2 58.9 3.4 60.9 5.4 L57.8 9.1 C56.1 7.5 54.4 6.5 52.1 6.5 C48.4 6.5 45.7 9.7 45.7 13.5 L45.7 13.6 C45.7 17.4 48.3 20.6 52.1 20.6 C54.7 20.6 56.2 19.6 58 18 L61.1 21.1 C58.8 23.6 56.3 25.1 52 25.1 C45.4 25.1 40.6 20.1 40.6 13.6 L40.6 13.6 Z" id="Shape"/><path d="M65 2.4 L69.9 2.4 L69.9 11.2 L78.9 11.2 L78.9 2.4 L83.8 2.4 L83.8 24.8 L78.9 24.8 L78.9 15.8 L69.9 15.8 L69.9 24.8 L65 24.8 L65 2.4 L65 2.4 Z" id="Shape"/><path d="M89.7 2.4 L106.5 2.4 L106.5 6.8 L94.6 6.8 L94.6 11.3 L105.1 11.3 L105.1 15.7 L94.6 15.7 L94.6 20.4 L106.7 20.4 L106.7 24.8 L89.7 24.8 L89.7 2.4 L89.7 2.4 L89.7 2.4 Z" id="Shape"/><path d="M111.6 2.4 L128.5 2.4 L128.5 6.9 L116.5 6.9 L116.5 11.6 L127.1 11.6 L127.1 16.1 L116.5 16.1 L116.5 24.8 L111.6 24.8 L111.6 2.4 L111.6 2.4 Z" id="Shape"/></g><path d="M17.7967917 26 C13.3768698 26 9.8 22.4 9.8 17.9 C9.78123958 13.5 13.4 9.9 17.8 9.9 C21.4448906 9.9 24.5 12.3 25.5 15.7 L28.59775 15.7 C27.5658646 10.6 23.1 6.8 17.8 6.8 C11.7168802 6.8 6.8 11.8 6.8 17.9 C6.77075 24 11.7 29 17.8 29 C23.1151458 29 27.6 25.2 28.6 20.2 L25.4960104 20.2 C24.5291406 23.5 21.4 26 17.8 26 L17.7967917 26 Z" id="Shape" fill="#FFFFFF"/><path d="M12.393651 23.4 C13.7779896 24.8 15.7 25.6 17.8 25.6 L17.7967917 22.4 C16.5687188 22.4 15.5 21.9 14.7 21.1 L12.393651 23.4 L12.393651 23.4 Z" id="Shape" fill="#FFFFFF"/><path d="M10.1519427 17.9 C10.1519427 19 10.4 20.1 10.8 21 L13.7236198 19.7 C13.4821875 19.2 13.3 18.6 13.3 17.9 C13.3472135 15.5 15.3 13.4 17.8 13.4 L17.7960312 10.2 C13.5814219 10.2 10.2 13.7 10.2 17.9 L10.1519427 17.9 Z" id="Shape" fill="#F38B00"/><path d="M20.5688906 10.7 L19.4096354 13.8 C20.355974 14.1 21.1 14.8 21.6 15.7 L25.1108594 15.7 C24.4268646 13.4 22.7 11.6 20.6 10.7 L20.5688906 10.7 Z" id="Shape" fill="#FFFFFF"/><path d="M19.4096354 22.1 L20.5688906 25.1 C22.7368385 24.2 24.4 22.4 25.1 20.2 L21.6490625 20.2 C21.1456667 21 20.4 21.7 19.4 22.1 L19.4096354 22.1 Z" id="Shape" fill="#F38B00"/><path d="M3.65342187 22.2 C3.60247396 22.1 3.6 21.9 3.5 21.7 C3.50704167 21.7 3.5 21.7 3.5 21.7 C3.46027604 21.5 3.4 21.4 3.4 21.2 C3.37815104 21.2 3.4 21.2 3.4 21.1 C3.33442708 21 3.3 20.8 3.3 20.7 C3.26789062 20.6 3.3 20.6 3.2 20.5 C3.22682812 20.4 3.2 20.3 3.2 20.2 C3.17664062 20.1 3.2 20 3.2 19.9 C3.06447917 19.3 3 18.6 3 17.9 L-1.65645763e-17 17.9 C-0.000760416667 18.7 0 19.4 0.1 20.1 L0.129270833 20.1 C0.131171875 20.1 0.1 20.1 0.1 20.1 C0.159307292 20.3 0.2 20.5 0.2 20.7 C0.2235625 20.8 0.2 20.8 0.2 20.9 C0.267666667 21 0.3 21.2 0.3 21.3 C0.340666667 21.4 0.4 21.5 0.4 21.6 C0.4015 21.7 0.4 21.8 0.5 22 C0.480203125 22.1 0.5 22.2 0.5 22.3 C0.55890625 22.4 0.6 22.5 0.6 22.6 C0.642552083 22.7 0.7 22.8 0.7 23 C0.731140625 23 0.7 23.1 0.8 23.1 L0.762317708 23.1 C0.970671875 23.8 1.2 24.5 1.5 25.1 L4.2705 23.9 C4.03210937 23.4 3.8 22.8 3.7 22.2 L3.65342187 22.2 L3.65342187 22.2 Z" id="Shape" fill="#FFFFFF"/><path d="M17.7967917 32.8 C13.7224792 32.8 10 31.1 7.4 28.4 L5.2149375 30.6 C8.43530208 33.8 12.9 35.9 17.8 35.9 C26.8719844 35.9 34.4 29 35.5 20.2 L32.4074375 20.2 C31.3314479 27.3 25.2 32.8 17.8 32.8 L17.7967917 32.8 Z" id="Shape" fill="#F38B00"/><path d="M17.7967917 3 C21.1068854 3 24.2 4.1 26.6 6 L28.4395833 3.6 C25.4712969 1.3 21.8 0 17.8 0 C10.2450938 0 3.8 4.7 1.2 11.4 L4.02488542 12.5 C6.17496354 7 11.5 3 17.8 3 L17.7967917 3 Z" id="Shape" fill="#F38B00"/><path d="M32.4074375 15.7 L35.4548073 15.7 C35.1282083 13 34.2 10.6 32.9 8.4 L30.329599 10 C31.3770729 11.7 32.1 13.6 32.4 15.7 L32.4074375 15.7 Z" id="Shape" fill="#FFFFFF"/><path d="M28.9749167 15.7 L32.0321719 15.7 C31.2341146 10.5 27.7 6.3 23 4.4 L21.9277552 7.2 C25.5055156 8.6 28.2 11.8 29 15.7 L28.9749167 15.7 Z" id="Shape" fill="#F38B00"/><path d="M17.7967917 6.4 L17.7967917 6.4 L17.7971719 3.4 C17.7971719 3.4 17.8 3.4 17.8 3.4 C11.6944479 3.4 6.5 7.3 4.4 12.7 L7.17605208 13.8 C8.83414062 9.5 13 6.4 17.8 6.4 L17.7967917 6.4 Z" id="Shape" fill="#FFFFFF"/><path d="M6.39966667 17.9 L6.39966667 17.9 L3.38917708 17.9 C3.38917708 24 7.1 29.3 12.4 31.4 L13.5639323 28.6 C9.36985417 26.9 6.4 22.7 6.4 17.9 L6.39966667 17.9 Z" id="Shape" fill="#F38B00"/><path d="M17.7967917 29.4 L17.7967917 32.4 C24.9850104 32.4 31 27.1 32 20.2 L28.9752969 20.2 C27.9373281 25.4 23.3 29.4 17.8 29.4 L17.7967917 29.4 Z" id="Shape" fill="#FFFFFF"/><g id="Group" fill="#F18A21"><path d="M46.8 31.8 C48.3 32.2 49 32.8 49 34 C49.1 35.3 48 36.1 46.5 36.1 C45.4 36.1 44.3 35.8 43.5 35 L44.3 34.1 C45 34.7 45.6 35 46.5 35 C47.3 35 47.8 34.7 47.8 34.1 C47.8 33.6 47.5 33.3 46.2 33 C44.7 32.6 43.8 32.2 43.8 30.8 C43.8 29.5 44.8 28.7 46.2 28.7 C47.3 28.7 48.1 29 48.8 29.6 L48.2 30.6 C47.5 30.1 46.9 29.8 46.2 29.8 C45.5 29.8 45 30.2 45 30.7 C45.1 31.3 45.4 31.5 46.7 31.8 L46.8 31.8 Z" id="Shape"/><path d="M58.9 32.9 C58.9 35.1 57.6 36.2 55.7 36.2 C53.9 36.2 52.7 35.1 52.7 33 L52.7 28.8 L54 28.8 L54 32.9 C54 34.3 54.6 35 55.7 35 C56.9 35 57.6 34.3 57.6 33 L57.6 28.8 L58.9 28.8 L58.9 32.9 L58.9 32.9 Z" id="Shape"/><path d="M65.5 33.7 L64.1 33.7 L64.1 36 L62.8 36 L62.8 28.8 L65.7 28.8 C67.4 28.8 68.4 29.8 68.4 31.2 C68.4 32.9 67.1 33.7 65.5 33.7 L65.5 33.7 ZM65.6 30 L64.1 30 L64.1 32.6 L65.6 32.6 C66.5 32.6 67.1 32 67.1 31.3 C67.1 30.4 66.5 30 65.5 30 L65.6 30 Z" id="Shape"/><path d="M77.3 29.9 L73.2 29.9 L73.2 31.8 L76.8 31.8 L76.8 33 L73.2 33 L73.2 34.9 L77.3 34.9 L77.3 36 L72 36 L72 28.8 L77.3 28.8 L77.3 29.9 L77.3 29.9 Z" id="Shape"/><path d="M85.7 36 L83.9 33.5 L82.3 33.5 L82.3 36 L81.1 36 L81.1 28.8 L84.3 28.8 C85.9 28.8 86.9 29.7 86.9 31.1 C86.9 32.3 86.2 33 85.2 33.3 L87.2 36 L85.7 36 L85.7 36 ZM84.2 30 L82.3 30 L82.3 32.4 L84.2 32.4 C85.1 32.4 85.6 31.9 85.6 31.2 C85.7 30.4 85.1 30 84.1 30 L84.2 30 Z" id="Shape"/><path d="M94.3 34.3 L94.2 34.3 L92 30.9 L92 36 L90.7 36 L90.7 28.8 L92.1 28.8 L94.3 32.2 L96.5 28.8 L97.8 28.8 L97.8 36 L96.5 36 L96.5 30.8 L94.3 34.3 L94.3 34.3 Z" id="Shape"/><path d="M108.8 36 L107.4 36 L106.7 34.3 L103.3 34.3 L102.6 36 L101.3 36 L104.5 28.7 L105.6 28.7 L108.8 36 L108.8 36 ZM105 30.3 L103.8 33.2 L106.3 33.2 L105 30.3 L105 30.3 Z" id="Shape"/><path d="M116.9 36 L115.1 33.5 L113.5 33.5 L113.5 36 L112.3 36 L112.3 28.8 L115.5 28.8 C117.1 28.8 118.1 29.7 118.1 31.1 C118.1 32.3 117.4 33 116.4 33.3 L118.4 36 L116.9 36 L116.9 36 ZM115.4 30 L113.5 30 L113.5 32.4 L115.4 32.4 C116.3 32.4 116.8 31.9 116.8 31.2 C116.9 30.4 116.3 30 115.3 30 L115.4 30 Z" id="Shape"/><path d="M128.3 36 L126.8 36 L124.3 32.8 L123.2 33.9 L123.2 36 L121.9 36 L121.9 28.8 L123.2 28.8 L123.2 32.4 L126.6 28.8 L128.2 28.8 L125.2 31.9 L128.3 36 L128.3 36 Z" id="Shape"/><path d="M137 29.9 L132.9 29.9 L132.9 31.8 L136.5 31.8 L136.5 33 L132.9 33 L132.9 34.9 L137 34.9 L137 36 L131.6 36 L131.6 28.8 L137 28.8 L137 29.9 L137 29.9 Z" id="Shape"/><path d="M143.8 36 L142.5 36 L142.5 30 L140.2 30 L140.2 28.8 L146.1 28.8 L146.1 30 L143.8 30 L143.8 36 L143.8 36 Z" id="Shape"/></g></g></g></g></g></svg>