<?xml version="1.0" encoding="UTF-8" standalone="no"?>
<svg width="300px" height="300px" viewBox="0 0 300 300" version="1.1" xmlns="http://www.w3.org/2000/svg" xmlns:xlink="http://www.w3.org/1999/xlink" xmlns:sketch="http://www.bohemiancoding.com/sketch/ns">
    <title>A4@2x</title>
    <description>Created with Sketch (http://www.bohemiancoding.com/sketch)</description>
    <defs></defs>
    <g id="Page-1" stroke="none" stroke-width="1" fill="none" fill-rule="evenodd" sketch:type="MSPage">
        <g id="A4" sketch:type="MSArtboardGroup">
            <g id="logo" sketch:type="MSLayerGroup" transform="translate(33.000000, 39.000000)">
                <g id="Group" transform="translate(0.334847, 159.462000)" fill="#FFFFFF" sketch:type="MSShapeGroup">
                    <path d="M-0.283,30.634 L-0.283,30.468 C-0.283,13.857 12.238,0.251 30.184,0.251 C41.203,0.251 47.796,3.924 53.223,9.266 L45.042,18.698 C40.535,14.608 35.944,12.104 30.101,12.104 C20.251,12.104 13.157,20.284 13.157,30.3 L13.157,30.467 C13.157,40.483 20.085,48.83 30.101,48.83 C36.779,48.83 40.869,46.159 45.459,41.985 L53.639,50.249 C47.63,56.676 40.951,60.682 29.683,60.682 C12.489,60.684 -0.283,47.413 -0.283,30.634 L-0.283,30.634 Z" id="Shape"></path>
                    <path d="M63.907,1.253 L76.761,1.253 L76.761,24.375 L100.467,24.375 L100.467,1.253 L113.321,1.253 L113.321,59.683 L100.467,59.683 L100.467,36.227 L76.761,36.227 L76.761,59.683 L63.907,59.683 L63.907,1.253 L63.907,1.253 Z" id="Shape"></path>
                    <path d="M129.016,1.253 L173.089,1.253 L173.089,12.689 L141.788,12.689 L141.788,24.542 L169.333,24.542 L169.333,35.977 L141.788,35.977 L141.788,48.248 L173.507,48.248 L173.507,59.684 L129.016,59.684 L129.016,1.253 L129.016,1.253 Z" id="Shape"></path>
                    <path d="M186.612,1.253 L231.102,1.253 L231.102,12.939 L199.467,12.939 L199.467,25.377 L227.347,25.377 L227.347,37.063 L199.467,37.063 L199.467,59.684 L186.612,59.684 L186.612,1.253 L186.612,1.253 Z" id="Shape"></path>
                </g>
                <path d="M115.834847,92.5651275 C100.003466,92.5651275 87.1245528,79.6848523 87.1245528,63.8534716 C87.1245528,48.0220909 100.004828,35.1431776 115.834847,35.1431776 C128.901694,35.1431776 139.948934,43.9202313 143.412091,55.8853505 L154.521975,55.8853505 C150.825943,37.9145204 134.884254,24.358773 115.834847,24.358773 C94.0576762,24.358773 76.34151,42.0749392 76.34151,63.8521098 C76.34151,85.6292804 94.0576762,103.346808 115.834847,103.346808 C134.884254,103.346808 150.825943,89.791061 154.521975,71.820231 L143.412091,71.820231 C139.948934,83.786712 128.900332,92.5651275 115.834847,92.5651275 L115.834847,92.5651275 Z" id="Shape" fill="#FFFFFF" sketch:type="MSShapeGroup"></path>
                <path d="M96.4817499,83.2065685 C101.440206,88.165025 108.28481,91.2359724 115.834847,91.2359724 L115.834847,79.789714 C111.434744,79.789714 107.450003,78.0057046 104.566989,75.122691 L96.4817499,83.2065685 L96.4817499,83.2065685 Z" id="Shape" fill="#FFFFFF" sketch:type="MSShapeGroup"></path>
                <path d="M88.452346,63.8534716 C88.452346,67.7728449 89.2857916,71.4988369 90.7756437,74.8734744 L101.246825,70.2690961 C100.382057,68.3066858 99.8986045,66.137276 99.8986045,63.8548335 C99.8986045,55.0532667 107.03328,47.9185912 115.833485,47.9185912 L115.833485,36.4723327 C100.736136,36.4709708 88.452346,48.7547604 88.452346,63.8534716 L88.452346,63.8534716 Z" id="Shape" fill="#F38B00" sketch:type="MSShapeGroup"></path>
                <path d="M125.764016,38.3366905 L121.611769,49.0080625 C125.001386,50.3290465 127.831288,52.7708242 129.634363,55.8867123 L142.032547,55.8867123 C139.582599,47.8491374 133.529224,41.3695064 125.764016,38.3366905 L125.764016,38.3366905 Z" id="Shape" fill="#FFFFFF" sketch:type="MSShapeGroup"></path>
                <path d="M121.611769,78.7002426 L125.764016,89.3716146 C133.529224,86.3374368 139.581237,79.8591678 142.031186,71.8215928 L129.633002,71.8215928 C127.829926,74.936119 125.001386,77.3778967 121.611769,78.7002426 L121.611769,78.7002426 Z" id="Shape" fill="#F38B00" sketch:type="MSShapeGroup"></path>
                <path d="M65.1757904,79.171439 C64.9933039,78.5722297 64.8217122,77.9675731 64.6610152,77.3601928 C64.6514823,77.3234232 64.6419494,77.2866535 64.6324166,77.248522 C64.4839761,76.6874443 64.3464303,76.122281 64.2156938,75.554394 C64.1898188,75.4399996 64.1653057,75.3228814 64.1407926,75.207125 C64.0332073,74.7182248 63.9310694,74.2293245 63.8357406,73.7363387 C63.7948855,73.5184444 63.756754,73.2978265 63.7186225,73.0785704 C63.6491687,72.6849989 63.5797149,72.2927892 63.5197939,71.8978558 C63.468044,71.5614815 63.4231033,71.2223835 63.3781627,70.8832856 C63.0676633,68.5749681 62.8987953,66.229881 62.9015189,63.8521098 L52.0898775,63.8521098 C52.0871538,66.4436898 52.2492127,69.0039475 52.5542647,71.5260737 L52.5529029,71.5260737 C52.5597121,71.5819091 52.5692449,71.6363827 52.5760541,71.6922181 C52.6604882,72.3799469 52.7544551,73.064952 52.8620404,73.7472334 C52.890639,73.9351672 52.924685,74.1203774 52.9560073,74.3083112 C53.0486123,74.8693889 53.1453029,75.427743 53.2528882,75.9833734 C53.3100855,76.2788925 53.3740919,76.5730498 53.4353747,76.8658452 C53.5279797,77.3084429 53.6205848,77.7510407 53.7213609,78.1909147 C53.8098804,78.5790389 53.9079329,78.9617157 54.0046234,79.3471162 C54.0917812,79.6930234 54.1762152,80.0375687 54.2688202,80.3793903 C54.3913858,80.8342446 54.5221223,81.2863752 54.6542207,81.737144 C54.7086943,81.9264397 54.7563587,82.1170971 54.8135559,82.3036691 L54.8203651,82.3023073 C55.566653,84.7726836 56.4504866,87.183139 57.4786752,89.5159695 L67.3874173,85.1580841 C66.5321822,83.2215487 65.7967891,81.221007 65.1757904,79.171439 L65.1757904,79.171439 L65.1757904,79.171439 Z" id="Shape" fill="#FFFFFF" sketch:type="MSShapeGroup"></path>
                <path d="M115.834847,116.7868 C101.241378,116.7868 88.0124719,110.845095 78.4292095,101.259109 L70.768864,108.919454 C82.303642,120.455594 98.2330751,127.597079 115.834847,127.597079 C148.340587,127.597079 175.16201,103.265098 179.082745,71.8215928 L168.168965,71.8215928 C164.313599,97.2430451 142.314448,116.7868 115.834847,116.7868 L115.834847,116.7868 Z" id="Shape" fill="#F38B00" sketch:type="MSShapeGroup"></path>
                <path d="M115.834847,10.9215056 C127.691019,10.9215056 138.645653,14.8408788 147.477181,21.4512463 L153.95545,12.7667977 C143.323571,4.82046599 130.130073,0.11122604 115.834847,0.11122604 C88.7859966,0.11122604 65.6755854,16.9599006 56.4191643,40.7348894 L66.5063073,44.65971 C74.207508,24.9334691 93.4135262,10.9215056 115.834847,10.9215056 L115.834847,10.9215056 Z" id="Shape" fill="#F38B00" sketch:type="MSShapeGroup"></path>
                <path d="M168.167604,55.8867123 L179.081383,55.8867123 C177.911563,46.5063639 174.70307,37.7592707 169.913481,30.1016489 L160.723791,35.8363538 C164.477019,41.8257226 167.065876,48.614491 168.167604,55.8867123 L168.167604,55.8867123 Z" id="Shape" fill="#FFFFFF" sketch:type="MSShapeGroup"></path>
                <path d="M155.872919,55.8867123 L166.823468,55.8867123 C163.96633,37.5263962 151.391106,22.3459747 134.543794,15.7682913 L130.63123,25.824112 C143.446137,30.8247855 153.138346,42.1130706 155.872919,55.8867123 L155.872919,55.8867123 Z" id="Shape" fill="#F38B00" sketch:type="MSShapeGroup"></path>
                <path d="M115.834847,23.0323416 L115.834847,23.0323416 L115.836209,12.2492988 C115.836209,12.2492988 115.836209,12.2492988 115.834847,12.2492988 C93.9773276,12.2492988 75.2534005,25.9099078 67.745581,45.141801 L77.7932306,49.0516414 C83.7322113,33.8385357 98.5435745,23.0323416 115.834847,23.0323416 L115.834847,23.0323416 Z" id="Shape" fill="#FFFFFF" sketch:type="MSShapeGroup"></path>
                <path d="M75.0123549,63.8534716 L75.0123549,63.8534716 L64.2293122,63.8534716 C64.2293122,85.5393991 77.6788361,104.133951 96.6710456,111.757527 L100.674853,101.748009 C85.6510428,95.7177852 75.0123549,81.00856 75.0123549,63.8534716 L75.0123549,63.8534716 Z" id="Shape" fill="#F38B00" sketch:type="MSShapeGroup"></path>
                <path d="M115.834847,104.675963 L115.834847,115.459006 C141.581779,115.459006 162.983082,96.507652 166.82483,71.8229546 L155.874281,71.8229546 C152.15646,90.5305397 135.618285,104.675963 115.834847,104.675963 L115.834847,104.675963 Z" id="Shape" fill="#FFFFFF" sketch:type="MSShapeGroup"></path>
            </g>
        </g>
    </g>
</svg>