<?xml version="1.0" encoding="utf-8"?>
<!-- Generator: Adobe Illustrator 17.1.0, SVG Export Plug-In . SVG Version: 6.00 Build 0)  -->
<!DOCTYPE svg PUBLIC "-//W3C//DTD SVG 1.1//EN" "http://www.w3.org/Graphics/SVG/1.1/DTD/svg11.dtd">
<svg version="1.1" id="Layer_1" xmlns:sketch="http://www.bohemiancoding.com/sketch/ns"
	 xmlns="http://www.w3.org/2000/svg" xmlns:xlink="http://www.w3.org/1999/xlink" x="0px" y="0px" viewBox="91.7 87 52.9 50.3"
	 enable-background="new 91.7 87 52.9 50.3" xml:space="preserve">
<title>A4@2x</title>
<description>Created with Sketch (http://www.bohemiancoding.com/sketch)</description>
<g id="Page-1" sketch:type="MSPage">
	<g id="A4" sketch:type="MSArtboardGroup">
		<g id="logo" transform="translate(33.000000, 39.000000)" sketch:type="MSLayerGroup">
			<g id="Group" transform="translate(0.334847, 159.462000)" sketch:type="MSShapeGroup">
				<path id="Shape" fill="#FFFFFF" d="M59.8-69L59.8-69c0-3.6,2.7-6.6,6.6-6.6c2.4,0,3.8,0.8,5,1.9l-1.8,2c-1-0.9-2-1.4-3.2-1.4
					c-2.1,0-3.7,1.8-3.7,3.9v0c0,2.2,1.5,4,3.7,4c1.4,0,2.3-0.6,3.3-1.5l1.8,1.8c-1.3,1.4-2.7,2.3-5.2,2.3
					C62.6-62.5,59.8-65.4,59.8-69L59.8-69z"/>
				<path id="Shape_1_" fill="#FFFFFF" d="M73.7-75.4h2.8v5h5.1v-5h2.8v12.6h-2.8v-5.1h-5.1v5.1h-2.8V-75.4L73.7-75.4z"/>
				<path id="Shape_2_" fill="#FFFFFF" d="M87.8-75.4h9.5v2.5h-6.8v2.6h6v2.5h-6v2.7h6.9v2.5h-9.6V-75.4L87.8-75.4z"/>
				<path id="Shape_3_" fill="#FFFFFF" d="M100.2-75.4h9.6v2.5H103v2.7h6v2.5h-6v4.9h-2.8V-75.4L100.2-75.4z"/>
			</g>
			<path id="Shape_4_" sketch:type="MSShapeGroup" fill="#FFFFFF" d="M85.2,69.4c-3.4,0-6.2-2.8-6.2-6.2c0-3.4,2.8-6.2,6.2-6.2
				c2.8,0,5.2,1.9,6,4.5h2.4c-0.8-3.9-4.2-6.8-8.4-6.8c-4.7,0-8.5,3.8-8.5,8.5s3.8,8.5,8.5,8.5c4.1,0,7.6-2.9,8.4-6.8h-2.4
				C90.4,67.5,88,69.4,85.2,69.4L85.2,69.4z"/>
			<path id="Shape_5_" sketch:type="MSShapeGroup" fill="#FFFFFF" d="M81,67.3c1.1,1.1,2.6,1.7,4.2,1.7v-2.5c-1,0-1.8-0.4-2.4-1
				L81,67.3L81,67.3z"/>
			<path id="Shape_6_" sketch:type="MSShapeGroup" fill="#F38B00" d="M79.3,63.2c0,0.8,0.2,1.7,0.5,2.4l2.3-1
				c-0.2-0.4-0.3-0.9-0.3-1.4c0-1.9,1.5-3.4,3.4-3.4v-2.5C81.9,57.3,79.3,59.9,79.3,63.2L79.3,63.2z"/>
			<path id="Shape_7_" sketch:type="MSShapeGroup" fill="#FFFFFF" d="M87.3,57.7L86.4,60c0.7,0.3,1.3,0.8,1.7,1.5h2.7
				C90.3,59.7,89,58.3,87.3,57.7L87.3,57.7z"/>
			<path id="Shape_8_" sketch:type="MSShapeGroup" fill="#F38B00" d="M86.4,66.4l0.9,2.3c1.7-0.7,3-2.1,3.5-3.8h-2.7
				C87.8,65.6,87.2,66.1,86.4,66.4L86.4,66.4z"/>
			<path id="Shape_9_" sketch:type="MSShapeGroup" fill="#FFFFFF" d="M74.2,66.5c0-0.1-0.1-0.3-0.1-0.4c0,0,0,0,0,0
				c0-0.1-0.1-0.2-0.1-0.4c0,0,0-0.1,0-0.1c0-0.1,0-0.2-0.1-0.3c0,0,0-0.1,0-0.1c0-0.1,0-0.2,0-0.3c0-0.1,0-0.1,0-0.2
				c-0.1-0.5-0.1-1-0.1-1.5h-2.3c0,0.6,0,1.1,0.1,1.7h0c0,0,0,0,0,0c0,0.1,0,0.3,0.1,0.4c0,0,0,0.1,0,0.1c0,0.1,0,0.2,0.1,0.4
				c0,0.1,0,0.1,0,0.2c0,0.1,0,0.2,0.1,0.3c0,0.1,0,0.2,0.1,0.2c0,0.1,0,0.1,0.1,0.2c0,0.1,0.1,0.2,0.1,0.3c0,0,0,0.1,0,0.1l0,0
				c0.2,0.5,0.4,1.1,0.6,1.6l2.1-0.9C74.5,67.4,74.4,66.9,74.2,66.5L74.2,66.5L74.2,66.5z"/>
			<path id="Shape_10_" sketch:type="MSShapeGroup" fill="#F38B00" d="M85.2,74.6c-3.2,0-6-1.3-8.1-3.4l-1.7,1.7
				c2.5,2.5,5.9,4,9.7,4c7,0,12.8-5.3,13.7-12.1h-2.4C95.7,70.4,90.9,74.6,85.2,74.6L85.2,74.6z"/>
			<path id="Shape_11_" sketch:type="MSShapeGroup" fill="#F38B00" d="M85.2,51.7c2.6,0,4.9,0.8,6.8,2.3l1.4-1.9
				c-2.3-1.7-5.1-2.7-8.2-2.7c-5.8,0-10.8,3.6-12.8,8.8l2.2,0.8C76.2,54.8,80.3,51.7,85.2,51.7L85.2,51.7z"/>
			<path id="Shape_12_" sketch:type="MSShapeGroup" fill="#FFFFFF" d="M96.5,61.4h2.4c-0.3-2-0.9-3.9-2-5.6l-2,1.2
				C95.7,58.4,96.3,59.9,96.5,61.4L96.5,61.4z"/>
			<path id="Shape_13_" sketch:type="MSShapeGroup" fill="#F38B00" d="M93.8,61.4h2.4c-0.6-4-3.3-7.2-7-8.7l-0.8,2.2
				C91.2,56,93.2,58.5,93.8,61.4L93.8,61.4z"/>
			<path id="Shape_14_" sketch:type="MSShapeGroup" fill="#FFFFFF" d="M85.2,54.3L85.2,54.3l0-2.3c0,0,0,0,0,0
				c-4.7,0-8.8,3-10.4,7.1L77,60C78.2,56.7,81.4,54.3,85.2,54.3L85.2,54.3z"/>
			<path id="Shape_15_" sketch:type="MSShapeGroup" fill="#F38B00" d="M76.4,63.2L76.4,63.2H74c0,4.7,2.9,8.7,7,10.4l0.9-2.2
				C78.7,70.1,76.4,66.9,76.4,63.2L76.4,63.2z"/>
			<path id="Shape_16_" sketch:type="MSShapeGroup" fill="#FFFFFF" d="M85.2,72v2.3c5.6,0,10.2-4.1,11-9.4h-2.4
				C93,68.9,89.5,72,85.2,72L85.2,72z"/>
		</g>
	</g>
</g>
</svg>
