<svg xmlns="http://www.w3.org/2000/svg" xmlns:xlink="http://www.w3.org/1999/xlink" xmlns:sketch="http://www.bohemiancoding.com/sketch/ns" width="10px" height="10px" viewBox="0 0 10 10" version="1.1"><title>platform_scientific</title><description>Created with Sketch (http://www.bohemiancoding.com/sketch)</description><defs/><g id="Page-1" stroke="none" stroke-width="1" fill="none" fill-rule="evenodd" sketch:type="MSPage"><g id="platform_scientific" sketch:type="MSLayerGroup"><path d="M5.5 5 C5.4 4.9 5.3 4.7 5.4 4.5 C5.5 4.3 5.7 4.3 5.9 4.4 C6.1 4.5 6.2 4.7 6.1 4.9 C6 5.1 5.7 5.1 5.5 5 " id="Fill-1" fill="#D9282A" sketch:type="MSShapeGroup"/><path d="M5.5 5 C5.4 4.9 5.3 4.7 5.4 4.5 C5.5 4.3 5.7 4.3 5.9 4.4 C6.1 4.5 6.2 4.7 6.1 4.9 C6 5.1 5.7 5.1 5.5 5 " id="Fill-2" fill="#1B1A19" sketch:type="MSShapeGroup"/><path d="M5.8 4.6 L5.7 4.5 L5.8 4.4 L5.9 4.6 L5.8 4.6 " id="Fill-3" fill="#FFFFFF" sketch:type="MSShapeGroup"/><path d="M4.8 4.6 C4.6 4.5 4.5 4.2 4.6 4 C4.7 3.9 5 3.8 5.1 3.9 C5.3 4 5.4 4.2 5.3 4.4 C5.2 4.6 4.9 4.7 4.8 4.6 " id="Fill-4" fill="#D9282A" sketch:type="MSShapeGroup"/><path d="M4.8 4.6 C4.6 4.5 4.5 4.2 4.6 4 C4.7 3.9 5 3.8 5.1 3.9 C5.3 4 5.4 4.2 5.3 4.4 C5.2 4.6 4.9 4.7 4.8 4.6 " id="Fill-5" fill="#1B1A19" sketch:type="MSShapeGroup"/><path d="M5 4.1 L4.9 4 L5.1 4 L5.1 4.1 L5 4.1 " id="Fill-6" fill="#FFFFFF" sketch:type="MSShapeGroup"/><path d="M5.1 5.8 C4.9 5.7 4.8 5.5 4.9 5.3 C5 5.1 5.3 5.1 5.5 5.2 C5.7 5.3 5.7 5.5 5.6 5.7 C5.5 5.9 5.3 5.9 5.1 5.8 " id="Fill-7" fill="#D9282A" sketch:type="MSShapeGroup"/><path d="M5.1 5.8 C4.9 5.7 4.8 5.5 4.9 5.3 C5 5.1 5.3 5.1 5.5 5.2 C5.7 5.3 5.7 5.5 5.6 5.7 C5.5 5.9 5.3 5.9 5.1 5.8 " id="Fill-8" fill="#1B1A19" sketch:type="MSShapeGroup"/><path d="M5.4 5.2 L5.3 5.3 L5.3 5.4 L5.4 5.3 L5.4 5.2 " id="Fill-9" fill="#BAB4B0" sketch:type="MSShapeGroup"/><path d="M4.3 5.4 C4.1 5.3 4 5.1 4.1 4.9 C4.2 4.7 4.5 4.6 4.7 4.7 C4.8 4.8 4.9 5.1 4.8 5.3 C4.7 5.4 4.5 5.5 4.3 5.4 " id="Fill-10" fill="#D9282A" sketch:type="MSShapeGroup"/><path d="M4.3 5.4 C4.1 5.3 4 5.1 4.1 4.9 C4.2 4.7 4.5 4.6 4.7 4.7 C4.8 4.8 4.9 5.1 4.8 5.3 C4.7 5.4 4.5 5.5 4.3 5.4 " id="Fill-11" fill="#1B1A19" sketch:type="MSShapeGroup"/><path d="M4.6 4.8 L4.4 4.8 L4.5 5 L4.6 4.9 L4.6 4.8 " id="Fill-12" fill="#BAB4B0" sketch:type="MSShapeGroup"/><path d="M5.2 4.6 C5 4.5 5 4.3 5.1 4.1 C5.2 3.9 5.4 3.9 5.6 4 C5.8 4.1 5.8 4.3 5.7 4.5 C5.6 4.7 5.4 4.8 5.2 4.6 " id="Fill-13" fill="#FFFFFF" sketch:type="MSShapeGroup"/><path d="M5.2 4.6 C5 4.5 5 4.3 5.1 4.1 C5.2 3.9 5.4 3.9 5.6 4 C5.8 4.1 5.8 4.3 5.7 4.5 C5.6 4.7 5.4 4.8 5.2 4.6 " id="Fill-14" fill="#FFFFFF" sketch:type="MSShapeGroup"/><path d="M4.6 5.8 C4.4 5.7 4.3 5.4 4.4 5.2 C4.5 5 4.8 5 5 5.1 C5.1 5.2 5.2 5.4 5.1 5.6 C5 5.8 4.7 5.9 4.6 5.8 " id="Fill-15" fill="#FFFFFF" sketch:type="MSShapeGroup"/><path d="M4.6 5.8 C4.4 5.7 4.3 5.4 4.4 5.2 C4.5 5 4.8 5 5 5.1 C5.1 5.2 5.2 5.4 5.1 5.6 C5 5.8 4.7 5.9 4.6 5.8 " id="Fill-16" fill="#FFFFFF" sketch:type="MSShapeGroup"/><path d="M4.3 4.9 C4.2 4.8 4.1 4.6 4.2 4.4 C4.3 4.2 4.5 4.1 4.7 4.2 C4.9 4.3 5 4.6 4.9 4.8 C4.8 4.9 4.5 5 4.3 4.9 " id="Fill-17" fill="#FFFFFF" sketch:type="MSShapeGroup"/><path d="M4.3 4.9 C4.2 4.8 4.1 4.6 4.2 4.4 C4.3 4.2 4.5 4.1 4.7 4.2 C4.9 4.3 5 4.6 4.9 4.8 C4.8 4.9 4.5 5 4.3 4.9 " id="Fill-18" fill="#FFFFFF" sketch:type="MSShapeGroup"/><path d="M5.4 5.5 C5.2 5.4 5.2 5.2 5.3 5 C5.4 4.8 5.6 4.7 5.8 4.8 C6 4.9 6.1 5.2 6 5.4 C5.8 5.5 5.6 5.6 5.4 5.5 " id="Fill-19" fill="#FFFFFF" sketch:type="MSShapeGroup"/><path d="M5.4 5.5 C5.2 5.4 5.2 5.2 5.3 5 C5.4 4.8 5.6 4.7 5.8 4.8 C6 4.9 6.1 5.2 6 5.4 C5.8 5.5 5.6 5.6 5.4 5.5 " id="Fill-20" fill="#FFFFFF" sketch:type="MSShapeGroup"/><path d="M4.9 5.2 C4.7 5.1 4.7 4.9 4.8 4.7 C4.9 4.5 5.1 4.4 5.3 4.5 C5.5 4.6 5.5 4.9 5.4 5.1 C5.3 5.2 5.1 5.3 4.9 5.2 " id="Fill-21" fill="#D9282A" sketch:type="MSShapeGroup"/><path d="M4.9 5.2 C4.7 5.1 4.7 4.9 4.8 4.7 C4.9 4.5 5.1 4.4 5.3 4.5 C5.5 4.6 5.5 4.9 5.4 5.1 C5.3 5.2 5.1 5.3 4.9 5.2 " id="Fill-22" fill="#1B1A19" sketch:type="MSShapeGroup"/><path d="M5.1 4.7 L5.1 4.6 L5.2 4.6 L5.3 4.7 L5.1 4.7 " id="Fill-23" fill="#FFFFFF" sketch:type="MSShapeGroup"/><path d="M6.7 5.6 C5.4 6.2 3.8 6.5 2.6 6.5 C2.1 6.5 1.6 6.4 1.3 6.3 C1.1 6.2 1 6.1 1 5.9 C1 5.7 1.2 5.4 1.6 5.1 C2 4.8 2.6 4.4 3.3 4.1 C4.7 3.6 6.3 3.3 7.4 3.3 C8 3.3 8.5 3.3 8.7 3.5 C9 3.6 9.1 3.7 9.1 3.9 C9.1 4 9 4.2 8.7 4.5 L8.9 4.7 C9.2 4.4 9.3 4.1 9.3 3.9 C9.3 3.6 9.1 3.4 8.8 3.3 C8.5 3.1 8 3 7.4 3 C6.2 3 4.7 3.3 3.2 3.9 C2.5 4.2 1.9 4.6 1.4 4.9 C1 5.2 0.8 5.6 0.8 5.9 C0.8 6.2 0.9 6.4 1.2 6.5 C1.6 6.7 2.1 6.8 2.6 6.8 C3.8 6.8 5.4 6.4 6.8 5.9 L6.7 5.6 " id="Fill-24" fill="#1B1A19" sketch:type="MSShapeGroup"/><path d="M9.1 4.6 C9.1 4.7 9 4.8 8.9 4.8 C8.7 4.8 8.7 4.7 8.7 4.6 C8.7 4.4 8.7 4.3 8.9 4.3 C9 4.3 9.1 4.4 9.1 4.6 " id="Fill-25" fill="#1B1A19" sketch:type="MSShapeGroup"/><path d="M9.1 4.6 C9.1 4.7 9 4.8 8.9 4.8 C8.7 4.8 8.7 4.7 8.7 4.6 C8.7 4.4 8.7 4.3 8.9 4.3 C9 4.3 9.1 4.4 9.1 4.6 " id="Fill-26" fill="#1B1A19" sketch:type="MSShapeGroup"/><path d="M6.9 4.7 C6.2 5.6 5.4 6.4 4.6 7 C3.8 7.6 3 7.9 2.5 8 L2.5 8 L2.5 8 C2.3 8 2.2 7.9 2.1 7.9 C2 7.8 2 7.7 2 7.5 C2 7 2.4 6.1 3.2 5.1 C3.9 4.2 4.7 3.4 5.5 2.8 C6.3 2.2 7 1.9 7.5 1.8 L7.6 1.8 C7.8 1.8 7.9 1.9 8 1.9 C8 2 8.1 2.1 8.1 2.3 C8.1 2.4 8.1 2.6 8 2.7 L8.3 2.8 C8.3 2.6 8.3 2.4 8.3 2.3 C8.3 2.1 8.3 1.9 8.1 1.8 C8 1.6 7.8 1.6 7.6 1.6 L7.5 1.6 C6.9 1.6 6.2 2 5.3 2.6 C4.5 3.2 3.7 4.1 3 5 C2.2 6 1.8 6.9 1.7 7.5 C1.7 7.7 1.8 7.9 1.9 8 C2.1 8.2 2.2 8.2 2.5 8.2 L2.6 8.2 L2.5 8.2 L2.6 8.2 C3.1 8.2 3.9 7.8 4.7 7.2 C5.5 6.6 6.4 5.7 7.1 4.9 L6.9 4.7 " id="Fill-27" fill="#1B1A19" sketch:type="MSShapeGroup"/><path d="M8.4 2.7 C8.4 2.8 8.3 2.9 8.2 2.9 C8.1 2.9 8 2.8 8 2.7 C8 2.5 8.1 2.4 8.2 2.4 C8.3 2.4 8.4 2.5 8.4 2.7 " id="Fill-28" fill="#1B1A19" sketch:type="MSShapeGroup"/><path d="M8.4 2.7 C8.4 2.8 8.3 2.9 8.2 2.9 C8.1 2.9 8 2.8 8 2.7 C8 2.5 8.1 2.4 8.2 2.4 C8.3 2.4 8.4 2.5 8.4 2.7 " id="Fill-29" fill="#1B1A19" sketch:type="MSShapeGroup"/><path d="M6.6 3.8 C6.4 4.9 6.1 6 5.7 6.9 C5.3 7.8 4.8 8.5 4.4 8.8 C4.3 8.9 4.2 8.9 4.1 8.9 C3.9 8.9 3.8 8.8 3.7 8.5 C3.5 8.2 3.5 7.8 3.5 7.2 C3.5 6.8 3.5 6.4 3.6 6 C3.7 4.9 4 3.8 4.4 2.9 C4.8 1.9 5.3 1.2 5.7 1 C5.8 0.9 5.9 0.8 6 0.8 C6.1 0.8 6.2 0.9 6.3 1 C6.4 1.1 6.5 1.3 6.5 1.5 L6.8 1.4 C6.7 1.2 6.6 1 6.5 0.8 C6.4 0.7 6.2 0.6 6 0.6 C5.9 0.6 5.7 0.7 5.5 0.8 C5.1 1.1 4.6 1.8 4.2 2.8 C3.8 3.7 3.5 4.8 3.3 5.9 C3.2 6.4 3.2 6.8 3.2 7.2 C3.2 7.8 3.3 8.3 3.4 8.6 C3.6 8.9 3.8 9.2 4.1 9.2 C4.2 9.2 4.4 9.1 4.6 9 C5.1 8.7 5.5 7.9 5.9 7 C6.3 6.1 6.7 4.9 6.8 3.8 L6.6 3.8 L6.6 3.8 " id="Fill-30" fill="#1B1A19" sketch:type="MSShapeGroup"/><path d="M6.8 1.4 C6.8 1.5 6.8 1.6 6.6 1.6 C6.5 1.6 6.4 1.5 6.4 1.4 C6.4 1.3 6.5 1.2 6.6 1.2 C6.8 1.2 6.8 1.3 6.8 1.4 " id="Fill-31" fill="#1B1A19" sketch:type="MSShapeGroup"/><path d="M6.8 1.4 C6.8 1.5 6.8 1.6 6.6 1.6 C6.5 1.6 6.4 1.5 6.4 1.4 C6.4 1.3 6.5 1.2 6.6 1.2 C6.8 1.2 6.8 1.3 6.8 1.4 " id="Fill-32" fill="#1B1A19" sketch:type="MSShapeGroup"/><path d="M5.8 3.2 C6.4 4.6 6.7 6.1 6.7 7.3 C6.7 7.8 6.6 8.3 6.5 8.6 C6.4 8.8 6.2 8.9 6.1 8.9 C5.9 8.9 5.6 8.7 5.3 8.3 C5 7.9 4.6 7.3 4.3 6.6 C3.8 5.2 3.4 3.6 3.4 2.5 C3.4 1.9 3.5 1.5 3.7 1.2 C3.8 0.9 3.9 0.9 4.1 0.9 C4.2 0.9 4.4 1 4.7 1.2 L4.8 1 C4.6 0.8 4.3 0.6 4.1 0.6 C3.8 0.6 3.6 0.8 3.4 1.1 C3.3 1.4 3.2 1.9 3.2 2.5 C3.2 3.7 3.5 5.3 4.1 6.7 C4.4 7.4 4.7 8 5.1 8.5 C5.4 8.9 5.7 9.1 6.1 9.1 C6.3 9.1 6.6 9 6.7 8.7 C6.9 8.3 6.9 7.9 6.9 7.3 C6.9 6.1 6.6 4.5 6 3.1 L5.8 3.2 " id="Fill-33" fill="#1B1A19" sketch:type="MSShapeGroup"/><path d="M4.9 1.1 C4.9 1.2 4.8 1.3 4.7 1.3 C4.6 1.3 4.5 1.2 4.5 1.1 C4.5 0.9 4.6 0.9 4.7 0.9 C4.8 0.9 4.9 0.9 4.9 1.1 " id="Fill-34" fill="#1B1A19" sketch:type="MSShapeGroup"/><path d="M4.9 1.1 C4.9 1.2 4.8 1.3 4.7 1.3 C4.6 1.3 4.5 1.2 4.5 1.1 C4.5 0.9 4.6 0.9 4.7 0.9 C4.8 0.9 4.9 0.9 4.9 1.1 " id="Fill-35" fill="#1B1A19" sketch:type="MSShapeGroup"/><path d="M4.9 3 C5.7 3.7 6.6 4.5 7.1 5.3 C7.7 6.1 8.1 6.9 8.1 7.4 L8.1 7.4 C8.1 7.6 8.1 7.7 8 7.8 C8 7.9 7.8 7.9 7.7 7.9 C7.2 7.9 6.3 7.5 5.3 6.7 C4.4 6 3.6 5.2 3 4.4 C2.4 3.6 2 2.9 2 2.4 L2 2.3 C2 2.1 2 2 2.1 1.9 C2.2 1.9 2.3 1.8 2.5 1.8 C2.6 1.8 2.7 1.8 2.9 1.9 L2.9 1.7 C2.8 1.6 2.6 1.6 2.5 1.6 C2.3 1.6 2.1 1.6 1.9 1.8 C1.8 1.9 1.7 2.1 1.7 2.3 L1.8 2.4 C1.8 3 2.2 3.7 2.8 4.6 C3.4 5.4 4.2 6.2 5.1 6.9 C6.2 7.7 7.1 8.2 7.7 8.2 C7.9 8.2 8.1 8.1 8.2 8 C8.3 7.8 8.4 7.7 8.4 7.4 L8.4 7.4 C8.4 6.8 8 6 7.3 5.2 C6.7 4.4 5.9 3.5 5 2.8 L4.9 3 " id="Fill-36" fill="#1B1A19" sketch:type="MSShapeGroup"/><path d="M3.1 1.8 C3.1 1.9 3 2 2.9 2 C2.7 2 2.7 1.9 2.7 1.8 C2.7 1.7 2.7 1.6 2.9 1.6 C3 1.6 3.1 1.7 3.1 1.8 " id="Fill-37" fill="#1B1A19" sketch:type="MSShapeGroup"/><path d="M3.1 1.8 C3.1 1.9 3 2 2.9 2 C2.7 2 2.7 1.9 2.7 1.8 C2.7 1.7 2.7 1.6 2.9 1.6 C3 1.6 3.1 1.7 3.1 1.8 " id="Fill-38" fill="#1B1A19" sketch:type="MSShapeGroup"/><path d="M4 3.4 C5.1 3.5 6.2 3.8 7.1 4.2 C8 4.6 8.7 5.1 9 5.5 C9.1 5.6 9.1 5.7 9.1 5.8 C9.1 6 9 6.1 8.7 6.3 C8.4 6.4 8 6.4 7.4 6.4 C7 6.4 6.6 6.4 6.2 6.4 C5.1 6.2 4 5.9 3 5.5 C2.1 5.1 1.4 4.6 1.1 4.2 C1.1 4.1 1 4 1 3.9 C1 3.8 1.1 3.7 1.2 3.6 C1.3 3.5 1.4 3.4 1.7 3.4 L1.6 3.1 C1.4 3.2 1.1 3.3 1 3.4 C0.9 3.5 0.8 3.7 0.8 3.9 C0.8 4 0.8 4.2 0.9 4.4 C1.3 4.9 2 5.3 2.9 5.7 C3.9 6.1 5 6.4 6.1 6.6 C6.6 6.7 7 6.7 7.4 6.7 C8 6.7 8.4 6.6 8.8 6.5 C9.1 6.4 9.3 6.1 9.3 5.8 C9.3 5.7 9.3 5.5 9.2 5.3 C8.9 4.9 8.1 4.4 7.2 4 C6.2 3.6 5.1 3.3 4 3.1 L4 3.4 " id="Fill-39" fill="#1B1A19" sketch:type="MSShapeGroup"/><path d="M1.8 3.3 C1.8 3.4 1.7 3.5 1.6 3.5 C1.5 3.5 1.4 3.4 1.4 3.3 C1.4 3.2 1.5 3.1 1.6 3.1 C1.7 3.1 1.8 3.2 1.8 3.3 " id="Fill-40" fill="#1B1A19" sketch:type="MSShapeGroup"/><path d="M1.8 3.3 C1.8 3.4 1.7 3.5 1.6 3.5 C1.5 3.5 1.4 3.4 1.4 3.3 C1.4 3.2 1.5 3.1 1.6 3.1 C1.7 3.1 1.8 3.2 1.8 3.3 " id="Fill-41" fill="#1B1A19" sketch:type="MSShapeGroup"/></g></g></svg>
