<svg xmlns="http://www.w3.org/2000/svg" xmlns:xlink="http://www.w3.org/1999/xlink" xmlns:sketch="http://www.bohemiancoding.com/sketch/ns" width="9px" height="9px" viewBox="0 0 9 9" version="1.1"><title>platform_fedora</title><description>Created with Sketch (http://www.bohemiancoding.com/sketch)</description><defs/><g id="Page-1" stroke="none" stroke-width="1" fill="none" fill-rule="evenodd" sketch:type="MSPage"><path d="M3.472 5 L3.48 5 L3.48 6.1 C3.48 6.6 3 7.1 2.5 7.1 C1.884 7.1 1.4 6.6 1.4 6.1 C1.423 5.5 1.9 5 2.5 5 L3.472 5 L3.472 5 L3.472 5 Z M5.501 2 C4.934 2 4.5 2.4 4.5 3 L4.472 4 L4.48 4 L4.48 4 L5.501 4 C6.068 4 6.5 3.6 6.5 3 C6.529 2.4 6.1 2 5.5 2 L5.501 2 Z M8.505 4.3 C8.505 6.6 6.6 8.5 4.3 8.5 L0.966 8.5 C0.433 8.5 0 8.1 0 7.5 L0 4.3 C0.001 1.9 1.9 0 4.3 0 C6.601 0 8.5 1.9 8.5 4.3 L8.505 4.3 Z M7.529 3 C7.529 1.9 6.6 1 5.5 1 C4.382 1 3.5 1.9 3.5 3 L3.472 4 L2.451 4 C1.333 4 0.4 4.9 0.4 6.1 C0.423 7.2 1.3 8.1 2.5 8.1 C3.57 8.1 4.5 7.2 4.5 6.1 L4.48 5 L5.501 5 C6.62 5 7.5 4.1 7.5 3 L7.529 3 Z" id="platform_fedora" fill="#1B1A19" sketch:type="MSShapeGroup"/></g></svg>
